<svg width="139" height="91" viewBox="0 0 139 91" fill="none" xmlns="http://www.w3.org/2000/svg">
<g filter="url(#filter0_d_1039_153)">
<g opacity="0.8">
<path d="M71.8053 38.8208L72.8728 39.8731C72.8728 39.8731 70.2757 44.3548 70.2147 44.5052C70.1537 44.6555 70.0551 45.2333 70.0551 45.2333L67.6715 49.7808V54.7817L66.5805 53.6448C66.5805 53.6448 66.611 48.9517 66.5805 48.7121C66.55 48.4725 68.9642 44.2116 68.9642 44.2116C68.9642 44.2116 68.9877 43.6361 69.0322 43.575C69.0768 43.5139 71.803 38.8232 71.803 38.8232L71.8053 38.8208Z" fill="black"/>
<path d="M65.8157 60.0527C65.7946 60.2759 65.8603 60.546 66.1606 60.8608C66.4069 61.1215 66.3623 61.8285 66.3037 62.0916C66.245 62.3547 66.2521 63.1134 66.4327 63.2684C66.6134 63.4234 66.9911 63.8415 67.0169 64.0107C67.0427 64.1798 67.1295 64.1986 67.5565 64.6167C67.9835 65.0348 68.0398 64.9996 68.0398 64.9996C68.0398 64.9996 68.0375 64.5439 67.6597 64.269C67.282 63.9966 67.3149 63.5385 67.4064 63.3694C67.4979 63.2003 67.4204 62.3218 67.1882 61.906C66.9559 61.4903 66.6838 61.2483 66.6533 61.1473C66.5618 60.8608 65.8157 60.0527 65.8157 60.0527Z" fill="black"/>
<path d="M73.7103 54.3188L70.9607 59.5217L72.1643 60.4237L75.5943 54.1755L73.7103 54.3188Z" fill="black"/>
<path d="M82.6796 37.6721L83.7212 38.8207L81.2766 64.478L80.1458 63.3458L82.6796 37.6721Z" fill="black"/>
<path d="M93.962 48.3504C93.962 48.3504 94.389 44.0072 94.2975 43.5374C94.206 43.0677 94.3045 42.9948 94.3092 42.5979C94.3139 42.2009 94.7292 39.0064 94.8207 38.5037C94.9122 38.0034 95.0764 37.7779 95.0764 37.7779L93.962 36.7068C93.962 36.7068 93.359 39.3517 93.1666 41.003C93.0212 42.262 93.2488 41.8251 93.1127 42.5274C92.9766 43.2297 92.5872 47.4437 92.5872 47.4437L92.8429 47.6105C93.23 47.7255 93.7602 47.951 93.962 48.348V48.3504Z" fill="black"/>
<path d="M93.4365 51.5635C93.4365 51.5635 93.3966 51.4038 93.3145 51.4109C93.0376 51.4391 92.6881 51.4813 92.2939 51.5283L90.7783 69.8452L91.7543 70.8928L92.986 57.8046L93.4341 51.5635H93.4365Z" fill="black"/>
<path d="M32.7543 44.8574C33.8077 45.3624 33.8617 45.8581 33.9109 46.0906C34.0165 46.5745 33.1977 46.9644 33.0546 46.7718C33.0546 46.7718 32.2428 46.0037 32.2874 45.8722C32.332 45.7406 32.7848 45.2826 32.7848 45.2826C32.6769 44.9843 32.7519 44.8598 32.7519 44.8598L32.7543 44.8574Z" fill="black"/>
<path opacity="0.8" d="M33.1625 46.8635C33.1625 46.8635 34.2464 47.4531 34.9878 47.4296C35.0746 47.9628 34.4083 48.0944 34.4083 48.0944L31.8933 75.5015L30.746 74.313L33.1625 46.8635Z" fill="black"/>
<path d="M40.9375 53.929L38.7486 56.332L37.8007 56.3226L37.6975 57.5252L39.9404 57.4266L43.8396 53.2032L43.3211 51.0845L42.2161 50.0369L42.6502 52.1133L40.9375 53.929Z" fill="black"/>
<path d="M50.5284 42.929L51.5068 44.0001C51.5068 44.0001 51.5068 47.3684 50.6645 51.1032C50.5589 51.5659 50.8334 51.6505 50.8029 51.9535C50.7724 52.2565 49.651 63.1226 49.651 63.1226L48.302 62.8971L47.8328 62.6317L48.6821 61.9693C48.6821 61.9693 49.5384 51.5589 49.6721 51.223C49.8058 50.8871 49.3789 50.5794 49.5008 50.0368C49.6228 49.4942 50.5308 42.929 50.5308 42.929H50.5284Z" fill="black"/>
<path d="M49.21 63.8555C50.0827 64.4544 50.5613 65.0558 50.2704 65.946C50.2704 65.946 49.21 65.1074 49.21 64.9007V63.8555Z" fill="black"/>
<path d="M54.3901 60.0314L59.317 58.2979L61.1376 40.0774L62.2918 41.2307L60.3399 59.3009L54.0804 61.5864L54.3901 60.0314Z" fill="black"/>
<path d="M19.1116 11.261L20.1603 12.3321C20.1603 12.3321 16.0992 19.3929 16.0124 19.6114C15.9256 19.8298 16.0124 20.3325 16.0124 20.3325L12.3008 27.2195L13.5232 32.467L12.4322 31.417C12.4322 31.417 11.2521 26.4538 11.2099 26.1061C11.1677 25.7585 14.9003 19.2426 14.9003 19.2426C14.9003 19.2426 14.8557 18.5215 14.9214 18.4346C14.9871 18.3477 19.1139 11.2657 19.1139 11.2657L19.1116 11.261Z" fill="black"/>
<path d="M10.0181 42.7506C9.98762 43.0771 9.94304 43.1617 10.3771 43.6221C10.736 44.0003 11.0199 45.5106 10.9354 45.8935C10.851 46.2764 10.5108 46.9035 10.7759 47.1314C11.041 47.3592 11.59 47.9652 11.6275 48.2119C11.6651 48.4585 11.78 48.6676 12.4041 49.2736C13.0282 49.8796 12.8405 49.5766 12.8405 49.5766C12.8405 49.5766 12.7279 49.0081 12.1765 48.6088C11.6252 48.2095 11.8739 47.6223 12.0053 47.3757C12.1367 47.129 12.024 45.7267 11.6839 45.1183C11.3437 44.51 11.1442 44.1858 11.0973 44.0378C10.9636 43.6197 10.0181 42.7483 10.0181 42.7483V42.7506Z" fill="black"/>
<path d="M19.1116 11.261L29.0451 10.3074L30.5137 11.4889L20.158 12.3321L19.1116 11.261Z" fill="black"/>
<path d="M32.1655 16.1327C32.3297 15.9072 31.4546 14.9324 31.2552 14.5449C31.0581 14.1573 31.1871 13.6734 31.281 13.3962C31.3748 13.1191 31.2223 12.755 30.9502 12.5248C30.678 12.2946 30.4458 11.9634 30.5138 11.4866L20.1604 12.3298C20.1604 12.3298 16.0993 19.3907 16.0125 19.6091C15.9257 19.8276 16.0125 20.3302 16.0125 20.3302L12.3009 27.2173L13.5233 32.4647L26.1289 31.3725L19.9235 42.7812L10.9026 43.6996V43.7043C10.9941 43.8288 11.0669 43.9439 11.0974 44.0379C11.1443 44.1858 11.3437 44.5123 11.6839 45.1184C12.0241 45.7244 12.1391 47.129 12.0053 47.3757C11.8716 47.6223 11.6276 48.2095 12.1766 48.6088C12.7256 49.0082 12.8405 49.5766 12.8405 49.5766C12.8405 49.5766 12.8734 49.6306 12.8617 49.6471L12.8663 49.6541L22.835 48.6981L31.0346 33.9634L30.976 27.02C30.976 27.02 28.6158 27.1491 27.6961 27.2079C26.7764 27.2666 26.2298 27.6683 25.8685 27.828C25.5095 27.9854 18.1568 28.5773 18.1568 28.5773L23.1634 17.1263C23.1634 17.1263 31.9965 16.3629 32.1631 16.1374L32.1655 16.1327Z" fill="black"/>
<path d="M26.1266 31.3726L24.3459 31.5276L18.6425 41.8863L19.9234 42.7812L26.1266 31.3726Z" fill="black"/>
<path d="M18.6424 41.8862L10.0181 42.7506L10.9026 43.7019L19.9234 42.7812L18.6424 41.8862Z" fill="black"/>
<path d="M26.1266 26.2142C25.7184 26.2447 24.9136 26.6863 24.7893 26.7333C24.6626 26.7802 18.6941 27.351 18.6941 27.351L18.1592 28.5725C18.1592 28.5725 25.5119 27.9829 25.8709 27.8232C26.2298 27.6658 26.7765 27.2618 27.6985 27.2031C28.6181 27.1443 30.9783 27.0151 30.9783 27.0151L29.7889 25.8806C29.7889 25.8806 26.5348 26.1789 26.1266 26.2118V26.2142Z" fill="black"/>
<path d="M34.4013 14.4673C35.5204 15.0052 35.6072 15.6934 35.6611 15.9377C35.7738 16.4521 34.901 16.8679 34.7508 16.6612C34.7508 16.6612 33.8875 15.8438 33.9344 15.7028C33.9813 15.5619 34.657 15.0498 34.657 15.0498L34.4013 14.4673Z" fill="black"/>
<path d="M35.0206 16.8911C35.0206 16.8911 36.2476 17.4008 36.989 17.3773C37.0758 17.9105 36.1796 17.8871 36.1796 17.8871L33.8874 41.7004L32.7519 40.634L35.0206 16.8911Z" fill="black"/>
<path d="M46.4298 21.4294L45.4679 20.572L45.9019 23.0713L43.598 25.5682L41.4537 27.8772L40.0742 28.0392V29.0657L42.6713 28.9365L47.1101 23.9521L46.4298 21.4294Z" fill="black"/>
<path d="M31.8416 12.6397L32.9067 13.753L44.2901 12.5293L42.9716 11.5239L31.8416 12.6397Z" fill="black"/>
<path d="M34.4224 14.5166L34.5491 14.8079C34.4787 14.6458 34.4412 14.5612 34.4224 14.5166Z" fill="black"/>
<path d="M34.4012 14.4673L34.4106 14.4883L34.4012 14.4673Z" fill="black"/>
<path d="M52.3842 24.8188L50.5683 17.9976L44.2901 12.5293L32.9068 13.7531L34.4013 14.4672C35.5204 15.0051 35.6072 15.6933 35.6611 15.9376C35.7667 16.4191 35.0089 16.8137 34.7884 16.6939L35.0206 16.8912C35.0206 16.8912 36.2477 17.4009 36.989 17.3775C37.0758 17.9107 36.1796 17.8872 36.1796 17.8872L33.8875 41.7005L38.697 41.2354L39.4806 33.8669C39.4806 33.8669 44.1799 33.6484 44.4614 33.6155C44.7429 33.5826 46.655 31.5156 46.655 31.5156L46.6245 31.2008L52.3866 24.8212L52.3842 24.8188ZM42.6713 28.9365L40.0742 29.0657L41.0525 17.8472H42.432L46.4321 21.427L47.1125 23.9497L42.6737 28.9365H42.6713Z" fill="black"/>
<path opacity="0.1" d="M43.2438 25.951L46.9178 24.1682L47.1102 23.9521L46.4298 21.4294L45.4679 20.572L45.9019 23.0713L43.598 25.5682L43.2438 25.951Z" fill="black"/>
<path d="M54.6693 9.58838L55.6993 10.643L53.0083 40.4156L51.9408 39.3468L54.6693 9.58838Z" fill="black"/>
<path d="M54.6694 9.58842C54.6694 9.58842 56.4149 9.73406 57.0694 9.19615C57.724 8.65825 58.0407 8.01465 58.0407 8.01465L59.3499 9.15152C59.3499 9.15152 59.1434 9.16562 59.059 9.32534C58.9745 9.48507 58.944 10.1263 57.6372 10.4458C56.3304 10.7652 55.6993 10.6407 55.6993 10.6407L54.6694 9.58842Z" fill="black"/>
<path d="M59.4883 10.2179C59.4883 10.2179 59.5023 9.34172 59.3498 9.15381C59.3498 9.15381 59.1434 9.1679 59.0589 9.32763C58.9745 9.48735 58.944 10.1286 57.6372 10.4481C56.3304 10.7675 55.6993 10.643 55.6993 10.643L53.0083 40.4155C53.0083 40.4155 53.0529 40.8149 53.623 39.9364C54.1931 39.0602 55.5069 38.0102 55.9972 38.7008C56.4876 39.3914 56.6072 38.8206 56.9662 38.076C57.3251 37.3314 58.0008 36.615 58.1205 35.5909C58.2401 34.5667 60.3634 11.04 60.3634 11.04L59.4883 10.2155V10.2179Z" fill="black"/>
<path d="M74.8013 7.94439L75.9251 9.00845L69.9589 9.36783L65.7406 13.9153V14.2395L62.0713 18.5615C62.0713 18.5615 60.598 27.3089 60.6496 27.5578C60.7012 27.8068 65.4919 37.879 65.4919 37.879L64.3682 36.7797C64.3682 36.7797 59.5751 26.9095 59.5516 26.3341C59.5281 25.7586 60.7997 17.7135 60.9733 17.4387C61.1469 17.1639 64.767 12.9405 64.767 12.9405L64.7177 12.6916L68.9102 8.29438C70.9091 7.99842 72.8822 7.83164 74.8013 7.94439Z" fill="black"/>
<path d="M76.8753 12.6893C76.3357 12.0034 76.5609 10.6316 76.5914 10.3216C76.6219 10.0115 75.9885 9.24579 75.9251 9.00854L69.959 9.36793L65.7407 13.9154V14.2396L62.0713 18.5616L60.6496 27.5579L65.492 37.8791L74.4729 37.0898C74.4729 36.8831 73.9872 35.9999 73.8981 35.8379C73.8089 35.6758 73.7057 34.5554 73.7057 34.3627C73.7057 34.1701 73.7949 34.0245 73.8089 33.8037C73.823 33.5829 73.2928 33.1695 73.2506 33.0074C73.2083 32.8453 73.0746 32.5212 73.0746 32.5212L68.5537 32.89C68.5537 32.89 65.5319 26.4657 65.5788 26.2261C65.6257 25.9865 66.4914 20.3726 66.4914 20.3726L71.8804 14.1527C71.8804 14.1527 76.5328 13.6664 76.8777 13.6664C77.2225 13.6664 77.4173 13.3705 76.8777 12.6869L76.8753 12.6893Z" fill="black"/>
<path d="M68.0211 31.7553C68.0211 31.7553 71.6951 31.356 71.864 31.3889C72.0329 31.4218 73.0722 32.5211 73.0722 32.5211L68.5513 32.8898L68.0211 31.7553Z" fill="black"/>
<path d="M89.9971 6.3023L91.1208 7.36636L85.1547 7.72574L80.9364 12.2732V12.5974L77.2671 16.9194C77.2671 16.9194 75.7937 25.6668 75.8453 25.9158C75.8969 26.1647 80.6877 36.2369 80.6877 36.2369L79.5639 35.1376C79.5639 35.1376 74.7708 25.2675 74.7473 24.692C74.7215 24.1165 75.9955 16.0714 76.1691 15.7966C76.3427 15.5218 79.9627 11.2984 79.9627 11.2984L79.9135 11.0495L84.1083 6.65229C86.1072 6.35633 88.0803 6.18955 89.9994 6.3023H89.9971Z" fill="black"/>
<path d="M93.5585 34.2968C93.3192 34.0548 93.2113 33.2139 93.1949 32.6267C93.1808 32.0395 93.4201 32.0559 93.3591 31.8281C93.2981 31.6026 92.8031 31.2408 92.7116 30.8791C92.6224 30.5174 92.4347 30.3835 92.4347 30.3835L83.6767 31.2267L80.805 24.5746L80.9247 24.0626C80.9247 24.0626 85.4199 23.7924 85.4034 23.581C85.3894 23.3696 85.0867 22.618 84.9084 22.2562C84.7278 21.8945 84.8474 20.5039 84.9225 20.2855C84.9976 20.067 84.472 19.7546 84.4861 19.4117C84.5002 19.0688 84.2163 18.8691 84.2163 18.8691L81.652 19.1134C81.6309 18.5144 87.0926 12.5106 87.0926 12.5106C87.0926 12.5106 92.43 12.1794 92.4347 11.9116C92.4394 11.6438 91.8529 10.5915 91.7708 9.92677C91.6887 9.26203 91.874 9.08586 91.8529 8.7758C91.8318 8.46575 91.2969 7.84798 91.1162 7.36646L85.1501 7.72584L80.9317 12.2733V12.5975L77.2624 16.9195C77.2624 16.9195 75.7891 25.6669 75.8407 25.9158C75.8923 26.1648 80.6831 36.237 80.6831 36.237L93.9339 35.0296C93.9339 35.0296 93.7908 34.534 93.5538 34.2921L93.5585 34.2968Z" fill="black"/>
<path d="M84.221 18.869L83.1816 17.8684H82.4661C81.9757 18.4956 81.6496 18.9654 81.6567 19.1133L84.221 18.869Z" fill="black"/>
<path d="M83.2051 30.1251L91.3883 29.3147L92.4394 30.3835L83.679 31.2244L83.2051 30.1251Z" fill="black"/>
<path d="M52.2083 72.6358C52.1426 72.4408 41.5335 61.7227 41.5335 61.7227C41.8901 61.5277 43.4479 59.7402 43.4479 59.7402L43.4808 59.449L48.4451 53.9267L46.9202 48.0168L41.7939 43.5632L31.8347 44.5051L32.7543 44.8575C33.8077 45.3625 33.8617 45.8581 33.911 46.0907C34.0025 46.5111 33.3972 46.8588 33.1438 46.8165L33.1626 46.8635C33.1626 46.8635 34.2465 47.453 34.9878 47.4296C35.0746 47.9628 34.4083 48.0943 34.4083 48.0943L31.8933 75.5015C31.8933 75.5015 31.9379 75.0857 32.8693 73.3851C33.8101 71.6704 35.3351 71.8254 35.6424 72.1519C35.9497 72.476 36.2125 72.4126 36.2125 71.9898C36.2125 71.567 36.9586 63.576 36.9586 63.576C36.9586 63.576 50.1625 77.0564 50.1953 76.4058C50.2282 75.7551 51.2323 74.3599 51.8493 74.0357C52.4664 73.7116 51.915 72.9952 51.915 72.8989C51.915 72.8026 52.2716 72.8331 52.2059 72.6381L52.2083 72.6358ZM37.6976 57.5252L38.5398 47.7279L39.8372 47.6034L42.2185 50.0368L43.3212 51.0821L43.8397 53.2008L39.9405 57.4242L37.6952 57.5228L37.6976 57.5252Z" fill="black"/>
<path opacity="0.1" d="M40.0812 54.8662L43.8374 53.2056L43.8397 53.2032L43.3212 51.0845L42.2162 50.0369L42.6502 52.1133L40.9376 53.929L40.0812 54.8662Z" fill="black"/>
<path d="M31.8346 44.5052L30.4246 43.2462L40.0812 42.2126L41.7939 43.5633L31.8346 44.5052Z" fill="black"/>
<path d="M65.5459 40.6364C65.445 40.5354 65.5131 39.934 65.4286 39.9693C65.3441 40.0045 64.8608 40.6716 64.5113 40.8219C64.1617 40.9722 63.4274 40.8712 63.1599 40.9229C62.8925 40.9722 62.2918 41.233 62.2918 41.233L61.3159 50.2669L60.3399 59.3008L54.0805 61.5863L54.2353 60.8089L54.3901 60.0314L55.9198 41.0216C55.9198 41.0216 55.1691 42.29 54.0781 42.7081C52.9872 43.1262 53.2335 42.2735 53.0059 42.29C52.7784 42.3064 52.4171 43.4081 52.2129 43.7087C52.0112 44.0094 51.6475 43.7745 51.5021 43.9977C51.5021 43.9977 51.5021 47.366 50.6598 51.1008C50.5542 51.5635 50.8287 51.6481 50.7982 51.9511C50.7677 52.2541 49.6463 63.1202 49.6463 63.1202L48.2973 62.8947L47.8281 62.6293L49.2076 63.853C50.0803 64.452 50.5589 65.0533 50.268 65.9436L51.732 66.7023C51.732 66.7023 61.5387 63.2611 62.2238 63.1202C62.9089 62.9792 64.2743 61.8588 64.5089 60.4213C64.7435 58.9837 66.2779 41.9189 66.2779 41.6018C66.2779 41.2847 65.6444 40.7327 65.5436 40.634L65.5459 40.6364Z" fill="black"/>
<path d="M62.2919 41.2307C62.2919 41.2307 62.8948 40.97 63.1599 40.9206C63.4274 40.8713 64.1617 40.97 64.5113 40.8196C64.8609 40.6693 65.3442 40.0022 65.4286 39.967L64.2767 38.8184C64.1922 38.8512 63.7089 39.5207 63.3593 39.671C63.0098 39.8213 62.2754 39.7203 62.008 39.772C61.7405 39.8213 61.1376 40.0774 61.1376 40.0774L62.2919 41.2307Z" fill="black"/>
<path opacity="0.2" d="M62.2919 41.2307C62.2919 41.2307 62.8948 40.97 63.1599 40.9206C63.4274 40.8713 64.1617 40.97 64.5113 40.8196C64.8609 40.6693 65.3442 40.0022 65.4286 39.967L64.2767 38.8184C64.1922 38.8512 63.7089 39.5207 63.3593 39.671C63.0098 39.8213 62.2754 39.7203 62.008 39.772C61.7405 39.8213 61.1376 40.0774 61.1376 40.0774L62.2919 41.2307Z" fill="black"/>
<path d="M52.2153 43.7089C52.4171 43.4083 52.7807 42.3066 53.0083 42.2902C53.2359 42.2738 52.9895 43.1241 54.0805 42.7083C55.1714 42.2902 55.9222 41.0218 55.9222 41.0218L54.9415 39.9507C54.9415 39.9507 54.1907 41.2191 53.0998 41.6372C52.0088 42.0553 52.2552 41.2027 52.0276 41.2191C51.8 41.2355 51.4387 42.3372 51.2346 42.6378C51.0328 42.9385 50.6692 42.7036 50.5237 42.9268L51.5044 43.9979C51.6499 43.7747 52.0112 44.0073 52.2153 43.7089Z" fill="black"/>
<path opacity="0.1" d="M62.2919 41.2307L61.1376 40.0774L59.317 58.2979L57.0037 59.113L60.3399 59.3009L62.2919 41.2307Z" fill="black"/>
<path opacity="0.2" d="M52.3162 41.6629C52.2739 41.6277 52.2411 41.583 52.2176 41.5384C52.1402 41.3834 52.1332 41.2119 52.0299 41.219C51.8024 41.2354 51.4411 42.337 51.237 42.6377C51.1853 42.7129 51.1243 42.7552 51.0587 42.7786L52.1777 43.7511C52.1918 43.737 52.2059 43.7253 52.2176 43.7065C52.4194 43.4058 52.783 42.3042 53.0106 42.2877C53.0106 42.2877 52.532 41.8884 52.3185 41.6606L52.3162 41.6629Z" fill="black"/>
<path opacity="0.2" d="M54.6201 42.4194C55.4107 41.8815 55.9222 41.0218 55.9222 41.0218L54.9415 39.9507C54.9415 39.9507 54.3855 40.8902 53.5338 41.4188L54.6224 42.4194H54.6201Z" fill="black"/>
<path d="M79.3551 43.3002C80.4531 43.2439 81.4666 43.1311 80.8989 42.8915C80.3288 42.6519 80.2513 41.0617 80.1481 40.848C80.0449 40.6319 80.2959 40.2325 80.005 40.0775C79.7141 39.9225 79.5827 39.4668 79.5827 39.4668L72.8752 39.8732C72.8752 39.8732 70.278 44.3549 70.217 44.5052C70.156 44.6556 70.0575 45.2334 70.0575 45.2334L67.6738 49.7809V54.7817L75.5943 54.1781L72.1643 60.4262L66.4867 60.8725C66.5665 60.9758 66.6298 61.0721 66.6533 61.1473C66.6861 61.2506 66.9559 61.4902 67.1882 61.906C67.4204 62.3217 67.4979 63.2002 67.4064 63.3694C67.3149 63.5385 67.282 63.9942 67.6598 64.269C68.0375 64.5415 68.0398 64.9995 68.0398 64.9995L74.5081 64.3606L79.9111 54.5022L79.9839 49.25C79.9839 49.25 77.7457 49.3628 77.436 49.391C77.1263 49.4192 76.7322 49.7574 76.3662 49.8983C76.0002 50.0393 72.0845 50.2976 72.0845 50.2976L75.3527 43.7536C75.3527 43.7536 78.2524 43.3566 79.3504 43.3002H79.3551Z" fill="black"/>
<path d="M72.8728 39.8732L79.5804 39.4668L78.4167 38.29L71.8054 38.8209L72.8728 39.8732Z" fill="black"/>
<path d="M75.7726 48.7049C75.2635 48.8881 72.7015 49.0667 72.7015 49.0667L72.0869 50.2951C72.0869 50.2951 76.0025 50.0368 76.3685 49.8958C76.7345 49.7549 77.1286 49.4166 77.4383 49.3885C77.748 49.3603 79.9862 49.2475 79.9862 49.2475L78.8296 48.1741C76.1151 48.2962 76.2794 48.5217 75.7702 48.7049H75.7726Z" fill="black"/>
<path d="M65.8157 60.0526L70.9607 59.5217L72.1643 60.4237L66.4867 60.8724L65.8157 60.0526Z" fill="black"/>
<path d="M93.3121 51.411C91.5432 51.5989 86.7454 52.2308 86.7454 52.2308C86.7454 52.2308 86.1143 60.3204 85.9031 60.6422C85.692 60.964 84.5799 62.9207 84.3993 62.8902C84.2186 62.8596 83.8573 62.458 83.4069 62.5237C82.9564 62.5895 81.2742 64.4757 81.2742 64.4757L83.7189 38.8185C83.7189 38.8185 85.6591 38.896 86.0697 38.5789C86.4803 38.2618 86.8111 37.5453 86.9518 37.5571C87.0926 37.5688 87.0152 38.3839 87.2029 38.5037C87.3905 38.6235 87.8199 39.2953 87.8199 39.2953L87.1559 47.85L92.4042 47.5071C92.4042 47.5071 93.6312 47.6974 93.962 48.3504C93.962 48.3504 94.389 44.0072 94.2975 43.5374C94.206 43.0676 94.3045 42.9948 94.3092 42.5979C94.3139 42.2009 94.7292 39.0064 94.8207 38.5037C94.9122 38.001 95.0741 37.7779 95.0741 37.7779C95.0741 37.7779 96.5896 37.6745 96.8243 37.5571C97.0589 37.4396 97.9269 37.0192 97.9269 36.7044C97.9269 36.3897 97.9809 36.3192 98.0888 36.3544C98.1967 36.3897 98.1428 37.0591 98.3047 37.186C98.4665 37.3128 99.0812 37.9447 99.046 38.3252C99.0108 38.7057 97.8354 51.66 97.8659 51.9912C97.8964 52.3224 97.8964 52.9707 97.8354 53.4287C97.7744 53.8868 96.1509 69.3591 96.1228 69.601C96.0946 69.8429 95.731 69.4812 95.1914 69.7513C94.6518 70.0215 94.1685 70.5641 93.8987 70.503C93.6289 70.4419 93.3567 70.1718 92.9978 70.2329C92.6388 70.2939 91.752 70.8882 91.752 70.8882L92.9837 57.8001L93.4318 51.559C93.4318 51.559 93.3919 51.3993 93.3098 51.4063L93.3121 51.411Z" fill="black"/>
<path d="M87.1583 47.8523L92.4065 47.5093C92.4065 47.5093 92.5661 47.5469 92.7819 47.608L93.0634 47.6855L91.4423 46.3701L87.2615 46.5463L87.1606 47.8523H87.1583Z" fill="black"/>
<path d="M86.072 38.5812C86.4826 38.2618 86.8134 37.5477 86.9542 37.5594C86.9542 37.5594 85.8327 36.143 85.7342 36.594C85.6685 36.8947 84.9342 37.3574 84.5518 37.5594C84.1693 37.7614 82.6796 37.6722 82.6796 37.6722L83.7212 38.8208C83.7212 38.8208 85.6615 38.8983 86.072 38.5812Z" fill="black"/>
<path opacity="0.2" d="M86.072 38.5812C86.4826 38.2618 86.8134 37.5477 86.9542 37.5594C86.9542 37.5594 85.8327 36.143 85.7342 36.594C85.6685 36.8947 84.9342 37.3574 84.5518 37.5594C84.1693 37.7614 82.6796 37.6722 82.6796 37.6722L83.7212 38.8208C83.7212 38.8208 85.6615 38.8983 86.072 38.5812Z" fill="black"/>
<path d="M96.829 37.5595C97.0636 37.4444 97.9316 37.0216 97.9316 36.7068C97.9316 36.3921 97.9856 36.3216 98.0935 36.3568C98.0935 36.3568 97.0753 34.9357 96.9228 35.328C96.8477 35.523 96.2729 36.1149 96.1017 36.3474C95.9304 36.58 93.9644 36.7045 93.9644 36.7045L95.0788 37.7756C95.0788 37.7756 96.5943 37.6722 96.829 37.5548V37.5595Z" fill="black"/>
<path opacity="0.2" d="M96.829 37.5595C97.0636 37.4444 97.9316 37.0216 97.9316 36.7068C97.9316 36.3921 97.9856 36.3216 98.0935 36.3568C98.0935 36.3568 97.0753 34.9357 96.9228 35.328C96.8477 35.523 96.2729 36.1149 96.1017 36.3474C95.9304 36.58 93.9644 36.7045 93.9644 36.7045L95.0788 37.7756C95.0788 37.7756 96.5943 37.6722 96.829 37.5548V37.5595Z" fill="black"/>
</g>
<path opacity="0.7" d="M100.755 25.4211L102.723 53.6316L108.147 53.4813L109.653 48.9079L111.49 24.4768L107.089 10.8062L100.755 25.4211Z" fill="url(#paint0_linear_1039_153)"/>
<path opacity="0.7" d="M109.653 48.9079L111.49 24.4768L107.089 10.8062L118.097 20.6129L116.434 34.8262L113.625 35.4416L109.653 48.9079Z" fill="url(#paint1_linear_1039_153)"/>
<path opacity="0.7" d="M95.1591 19.6381L98.5891 50.0025L102.723 53.6316L100.755 25.4211L107.089 10.8062L95.1591 19.6381Z" fill="url(#paint2_linear_1039_153)"/>
<path opacity="0.7" d="M108.147 53.4812L113.625 35.4416L124.633 32.792L116.809 39.3502L109.62 56.6593L108.147 53.4812Z" fill="url(#paint3_linear_1039_153)"/>
<path opacity="0.7" d="M124.633 32.792L116.809 39.3502L109.62 56.6593L113.309 58.3459L123.014 42.035L124.633 32.792Z" fill="url(#paint4_linear_1039_153)"/>
<g opacity="0.7" filter="url(#filter1_i_1039_153)">
<path d="M124.633 32.792L123.014 42.035L113.309 58.3459L118.097 56.6593L127.817 41.6333L124.633 32.792Z" fill="url(#paint5_linear_1039_153)"/>
</g>
<g filter="url(#filter2_d_1039_153)">
<path d="M127.942 40.5054C127.909 40.5054 127.876 40.5125 127.846 40.5148L125.073 33.6208C125.295 33.4258 125.439 33.1439 125.439 32.8245C125.439 32.2396 124.965 31.7628 124.378 31.7628C123.824 31.7628 123.374 32.1903 123.327 32.7329L116.739 34.4006L118.417 21.7587C118.9 21.6601 119.266 21.2326 119.266 20.7182C119.266 20.1333 118.792 19.6564 118.205 19.6564C118.022 19.6564 117.851 19.7081 117.701 19.7903L108.321 11.2426C108.385 11.1064 108.422 10.9561 108.422 10.7963C108.422 10.2114 107.948 9.73462 107.362 9.73462C106.775 9.73462 106.301 10.2091 106.301 10.7963C106.301 10.9185 106.327 11.0336 106.365 11.144L95.6335 18.9964C95.474 18.9001 95.2887 18.8414 95.0892 18.8414C94.5051 18.8414 94.0288 19.3158 94.0288 19.9031C94.0288 20.4269 94.4089 20.8591 94.9063 20.946L98.6131 50.0796L98.707 50.2652L101.771 53.4268C101.698 53.5701 101.654 53.7298 101.654 53.9036C101.654 54.4885 102.128 54.9654 102.714 54.9654C103.179 54.9654 103.568 54.6647 103.711 54.2489H108.401L108.966 55.9496C108.814 56.1328 108.72 56.3653 108.72 56.6213C108.72 57.2062 109.194 57.6831 109.781 57.6831C110.02 57.6831 110.236 57.6008 110.414 57.4693L112.744 58.5944C112.929 58.9045 113.265 59.1135 113.649 59.1135C114.137 59.1135 114.543 58.7823 114.665 58.3337L117.37 57.326C117.565 57.575 117.863 57.7394 118.203 57.7394C118.787 57.7394 119.264 57.2649 119.264 56.6777C119.264 56.3982 119.153 56.1492 118.98 55.9589L127.745 42.6054C127.808 42.6171 127.871 42.6241 127.94 42.6241C128.524 42.6241 129 42.1497 129 41.5624C129 40.9752 128.526 40.5007 127.94 40.5007L127.942 40.5054ZM118.205 55.6184C117.624 55.6184 117.15 56.0905 117.147 56.673L114.614 57.6173C114.56 57.4975 114.487 57.3894 114.393 57.2978L121.856 44.6959L122.75 43.1879C122.818 43.202 122.891 43.209 122.963 43.209C123.461 43.209 123.876 42.8637 123.991 42.3987L127.039 42.1121C127.071 42.1661 127.107 42.2131 127.149 42.2601L118.37 55.6324C118.316 55.6231 118.262 55.616 118.208 55.616L118.205 55.6184ZM114.846 35.5962L123.041 33.5197L117.154 38.584C116.997 38.4924 116.817 38.436 116.622 38.436C116.519 38.436 116.42 38.4548 116.326 38.483L114.653 36.1223C114.761 35.972 114.827 35.7911 114.844 35.5962H114.846ZM122.773 41.1091C122.536 41.1514 122.33 41.2759 122.177 41.4473L117.678 39.5635C117.678 39.5424 117.685 39.5212 117.685 39.4977C117.685 39.3592 117.657 39.2276 117.607 39.1078L123.848 33.7405C123.862 33.7476 123.874 33.7546 123.888 33.7617L122.773 41.1091ZM110.339 55.7241L116.566 40.5524C116.587 40.5524 116.605 40.5594 116.624 40.5594C116.939 40.5594 117.218 40.4209 117.413 40.2024L121.912 42.0862C121.912 42.1074 121.905 42.1285 121.905 42.152C121.905 42.4127 122.004 42.65 122.159 42.8332L114.621 55.5596L113.764 57.0042C113.724 56.9995 113.687 56.9925 113.647 56.9925C113.159 56.9925 112.753 57.3237 112.629 57.7747L110.799 56.8915C110.822 56.8046 110.836 56.7176 110.836 56.6237C110.836 56.2432 110.635 55.912 110.334 55.7241H110.339ZM126.895 41.4332L123.928 41.7128C123.829 41.499 123.663 41.3252 123.456 41.2148L124.531 34.1281L127.215 40.799C127.041 40.9635 126.928 41.1843 126.895 41.4332ZM114.682 34.9244C114.492 34.6355 114.168 34.4452 113.797 34.4452C113.213 34.4452 112.737 34.9197 112.737 35.5069C112.737 35.8616 112.913 36.174 113.18 36.3666L110.046 46.8757L111.859 25.7378C112.319 25.6227 112.659 25.2093 112.659 24.7113C112.659 24.6361 112.65 24.561 112.636 24.4905L117.532 21.5332C117.593 21.5849 117.661 21.6295 117.734 21.6671L116.021 34.5885L114.682 34.9267V34.9244ZM101.914 24.8875C101.851 24.7818 101.771 24.6902 101.677 24.6127L107.24 11.8486C107.254 11.8486 107.268 11.851 107.282 11.8533L110.977 23.8587C110.789 23.9949 110.653 24.1922 110.588 24.42L101.914 24.8875ZM96.0793 19.5273L106.416 12.006L101.027 24.3707C101.027 24.3707 101.013 24.3707 101.006 24.3707C100.783 24.3707 100.577 24.4412 100.408 24.5586L96.1333 20.0886C96.1427 20.0299 96.152 19.9688 96.152 19.9078C96.152 19.7739 96.1239 19.647 96.0793 19.5296V19.5273ZM117.171 20.9413L112.275 23.8986C112.099 23.753 111.878 23.6613 111.634 23.6519L108.019 11.9027L117.232 20.2977C117.176 20.4269 117.145 20.5678 117.145 20.7182C117.145 20.7933 117.154 20.8685 117.169 20.9413H117.171ZM95.5913 20.8332C95.6664 20.7933 95.7368 20.744 95.8001 20.6876L100.002 25.1177C99.9715 25.2163 99.9504 25.3197 99.9504 25.4277C99.9504 25.9163 100.284 26.325 100.734 26.4472L101.724 43.0164L102.315 52.9194C102.301 52.9265 102.287 52.9335 102.271 52.9406L99.2841 49.8588L95.5937 20.8286L95.5913 20.8332ZM103.714 53.556C103.601 53.2295 103.336 52.9782 103 52.8842L101.419 26.4049C101.757 26.2616 102.001 25.9468 102.053 25.5687L110.618 25.1083C110.721 25.362 110.921 25.5663 111.17 25.6767L109.07 50.1313L108.138 53.2553V53.462L108.171 53.5537H103.711L103.714 53.556ZM113.842 36.5592C113.929 36.5545 114.011 36.5405 114.093 36.517L115.766 38.8776C115.641 39.0514 115.566 39.2628 115.566 39.493C115.566 39.8101 115.707 40.092 115.927 40.2846L109.656 55.569C109.63 55.5714 109.602 55.5714 109.574 55.5761L108.833 53.3446L113.842 36.5545V36.5592Z" fill="url(#paint6_linear_1039_153)"/>
</g>
<path opacity="0.3" d="M100.755 25.4211L102.723 53.6316L108.147 53.4813L109.653 48.9079L111.49 24.4768L107.089 10.8062L100.755 25.4211Z" fill="url(#paint7_linear_1039_153)"/>
<path opacity="0.3" d="M109.653 48.9079L111.49 24.4768L107.089 10.8062L118.097 20.6129L116.434 34.8262L113.625 35.4416L109.653 48.9079Z" fill="url(#paint8_linear_1039_153)"/>
<g style="mix-blend-mode:overlay" opacity="0.2">
<path d="M109.653 48.9079L111.49 24.4768L107.089 10.8062L118.097 20.6129L116.434 34.8262L113.625 35.4416L109.653 48.9079Z" fill="#5A117C"/>
</g>
<path opacity="0.3" d="M111.49 24.477L118.097 20.613L117.581 25.9827L111.143 30.3399L111.49 24.477Z" fill="url(#paint9_linear_1039_153)"/>
<path opacity="0.7" d="M102.284 21.8883L108.806 16.1382L107.089 10.8062L102.284 21.8883Z" fill="#A8E8E6"/>
<path opacity="0.4" d="M95.1591 19.6381L98.5891 50.0025L102.723 53.6316L100.755 25.4211L107.089 10.8062L95.1591 19.6381Z" fill="url(#paint10_linear_1039_153)"/>
<path opacity="0.77" d="M107.089 10.8062L95.1591 19.6381L96.0529 26.5063L101.221 32.0967L100.755 25.4211L107.089 10.8062Z" fill="url(#paint11_linear_1039_153)"/>
<path opacity="0.3" d="M101.231 33.269L111.014 31.1479L110.721 36.2427L101.667 38.5048L101.231 33.269Z" fill="white"/>
<path opacity="0.3" d="M101.393 39.6345L110.524 37.3325L110.395 39.0543L101.869 41.3656L101.393 39.6345Z" fill="white"/>
<path opacity="0.4" d="M108.147 53.4815L113.625 35.4418L124.633 32.7922L116.809 39.3504L109.62 56.6596L108.147 53.4815Z" fill="url(#paint12_linear_1039_153)"/>
<path opacity="0.3" d="M124.633 32.7922L116.809 39.3504L109.62 56.6596L113.309 58.3461L123.014 42.0352L124.633 32.7922Z" fill="url(#paint13_linear_1039_153)"/>
<path opacity="0.4" d="M124.633 32.7922L123.014 42.0352L113.309 58.3461L118.097 56.6596L127.817 41.6336L124.633 32.7922Z" fill="url(#paint14_linear_1039_153)"/>
<g style="mix-blend-mode:overlay" opacity="0.2">
<path d="M124.633 32.7922L123.014 42.0352L113.309 58.3461L118.097 56.6596L127.817 41.6336L124.633 32.7922Z" fill="#5A117C"/>
</g>
<path opacity="0.3" d="M116.391 53.1667L124.098 47.3814L127.817 41.6336L124.633 32.7922L123.014 42.0352L116.391 53.1667Z" fill="url(#paint15_linear_1039_153)"/>
<path opacity="0.2" d="M116.863 52.3727L111.779 51.4613L114.059 45.9719L119.681 47.433L116.863 52.3727Z" fill="#FAC2FF"/>
<path opacity="0.3" d="M114.768 44.2618L120.72 45.9718L121.278 44.9524L115.261 43.0732L114.768 44.2618Z" fill="#FFA6FB"/>
<path opacity="0.7" d="M110.017 48.0015L111.779 51.4614L116.809 39.3504L124.633 32.7922L113.625 35.4418L110.017 48.0015Z" fill="url(#paint16_linear_1039_153)"/>
<path opacity="0.32" d="M123.014 42.0351L116.809 39.3503L119 37.5134L123.43 37.8399L123.014 42.0351Z" fill="url(#paint17_linear_1039_153)"/>
<path d="M127.915 40.4261C127.883 40.4261 127.85 40.4331 127.819 40.4355L125.046 33.5414C125.269 33.3464 125.412 33.0646 125.412 32.7451C125.412 32.1602 124.938 31.6834 124.352 31.6834C123.798 31.6834 123.348 32.1109 123.301 32.6535L116.713 34.3212L118.39 21.6794C118.874 21.5807 119.24 21.1532 119.24 20.6388C119.24 20.0539 118.766 19.5771 118.179 19.5771C117.996 19.5771 117.825 19.6288 117.675 19.711L108.295 11.1633C108.358 11.027 108.396 10.8767 108.396 10.717C108.396 10.1321 107.922 9.65527 107.335 9.65527C106.749 9.65527 106.275 10.1298 106.275 10.717C106.275 10.8391 106.301 10.9542 106.338 11.0646L95.6072 18.9171C95.4476 18.8207 95.2623 18.762 95.0629 18.762C94.4787 18.762 94.0024 19.2365 94.0024 19.8237C94.0024 20.3475 94.3825 20.7797 94.8799 20.8667L98.5867 50.0003L98.6806 50.1858L101.745 53.3475C101.672 53.4908 101.627 53.6505 101.627 53.8243C101.627 54.4092 102.101 54.886 102.688 54.886C103.152 54.886 103.542 54.5854 103.685 54.1696H108.375L108.94 55.8702C108.788 56.0534 108.694 56.286 108.694 56.542C108.694 57.1269 109.168 57.6037 109.754 57.6037C109.994 57.6037 110.209 57.5215 110.388 57.39L112.717 58.5151C112.903 58.8251 113.238 59.0342 113.623 59.0342C114.111 59.0342 114.517 58.703 114.639 58.2544L117.344 57.2467C117.539 57.4957 117.837 57.6601 118.177 57.6601C118.761 57.6601 119.237 57.1856 119.237 56.5984C119.237 56.3188 119.127 56.0699 118.953 55.8796L127.718 42.526C127.782 42.5378 127.845 42.5448 127.913 42.5448C128.497 42.5448 128.974 42.0703 128.974 41.4831C128.974 40.8959 128.5 40.4214 127.913 40.4214L127.915 40.4261ZM118.179 55.539C117.597 55.539 117.123 56.0111 117.121 56.5937L114.587 57.5379C114.533 57.4181 114.461 57.3101 114.367 57.2185L121.83 44.6165L122.724 43.1085C122.792 43.1226 122.864 43.1297 122.937 43.1297C123.434 43.1297 123.85 42.7844 123.965 42.3193L127.012 42.0327C127.045 42.0868 127.08 42.1337 127.122 42.1807L118.343 55.5531C118.289 55.5437 118.235 55.5367 118.181 55.5367L118.179 55.539ZM114.819 35.5168L123.014 33.4404L117.128 38.5047C116.971 38.4131 116.79 38.3567 116.595 38.3567C116.492 38.3567 116.394 38.3755 116.3 38.4037L114.627 36.043C114.735 35.8927 114.801 35.7118 114.817 35.5168H114.819ZM122.747 41.0298C122.51 41.072 122.304 41.1965 122.151 41.368L117.651 39.4842C117.651 39.463 117.658 39.4419 117.658 39.4184C117.658 39.2798 117.63 39.1483 117.581 39.0285L123.822 33.6612C123.836 33.6682 123.847 33.6753 123.861 33.6823L122.747 41.0298ZM110.313 55.6447L116.539 40.4731C116.56 40.4731 116.579 40.4801 116.598 40.4801C116.912 40.4801 117.191 40.3415 117.386 40.1231L121.886 42.0069C121.886 42.028 121.879 42.0492 121.879 42.0727C121.879 42.3334 121.977 42.5706 122.132 42.7539L114.594 55.4803L113.738 56.9249C113.698 56.9202 113.661 56.9131 113.621 56.9131C113.133 56.9131 112.727 57.2443 112.602 57.6953L110.772 56.8121C110.796 56.7252 110.81 56.6383 110.81 56.5443C110.81 56.1638 110.608 55.8326 110.308 55.6447H110.313ZM126.869 41.3539L123.901 41.6334C123.803 41.4197 123.636 41.2459 123.43 41.1355L124.504 34.0488L127.188 40.7197C127.015 40.8841 126.902 41.1049 126.869 41.3539ZM114.655 34.8451C114.465 34.5561 114.141 34.3659 113.771 34.3659C113.187 34.3659 112.71 34.8404 112.71 35.4276C112.71 35.7823 112.886 36.0947 113.154 36.2873L110.019 46.7963L111.833 25.6584C112.293 25.5433 112.633 25.1299 112.633 24.632C112.633 24.5568 112.624 24.4816 112.609 24.4112L117.506 21.4539C117.567 21.5056 117.635 21.5502 117.708 21.5878L115.995 34.5092L114.655 34.8474V34.8451ZM101.888 24.8081C101.824 24.7024 101.745 24.6108 101.651 24.5333L107.213 11.7693C107.227 11.7693 107.242 11.7716 107.256 11.774L110.951 23.7793C110.763 23.9155 110.627 24.1129 110.561 24.3407L101.888 24.8081ZM96.0529 19.4479L106.39 11.9267L101.001 24.2914C101.001 24.2914 100.987 24.2914 100.98 24.2914C100.757 24.2914 100.55 24.3618 100.382 24.4793L96.1069 20.0093C96.1163 19.9506 96.1257 19.8895 96.1257 19.8284C96.1257 19.6945 96.0975 19.5677 96.0529 19.4503V19.4479ZM117.144 20.862L112.248 23.8192C112.072 23.6736 111.852 23.582 111.608 23.5726L107.992 11.8233L117.205 20.2183C117.149 20.3475 117.119 20.4885 117.119 20.6388C117.119 20.714 117.128 20.7891 117.142 20.862H117.144ZM95.565 20.7539C95.64 20.714 95.7104 20.6646 95.7738 20.6083L99.9756 25.0383C99.9451 25.137 99.924 25.2403 99.924 25.3484C99.924 25.837 100.257 26.2457 100.708 26.3678L101.698 42.9371L102.289 52.8401C102.275 52.8471 102.261 52.8542 102.244 52.8612L99.2577 49.7795L95.5673 20.7492L95.565 20.7539ZM103.687 53.4767C103.575 53.1502 103.309 52.8988 102.974 52.8049L101.393 26.3255C101.731 26.1822 101.975 25.8675 102.026 25.4893L110.592 25.0289C110.695 25.2826 110.894 25.487 111.143 25.5974L109.043 50.0519L108.112 53.176V53.3827L108.145 53.4743H103.685L103.687 53.4767ZM113.815 36.4799C113.902 36.4752 113.984 36.4611 114.066 36.4376L115.739 38.7983C115.615 38.9721 115.54 39.1835 115.54 39.4137C115.54 39.7308 115.681 40.0127 115.901 40.2053L109.63 55.4897C109.604 55.492 109.576 55.492 109.548 55.4967L108.806 53.2653L113.815 36.4752V36.4799Z" fill="url(#paint18_linear_1039_153)"/>
<path d="M73.4059 38.554L74.4733 39.6063C74.4733 39.6063 71.8762 44.088 71.8152 44.2383C71.7542 44.3887 71.6557 44.9665 71.6557 44.9665L69.272 49.514V54.5148L68.1811 53.378C68.1811 53.378 68.2116 48.6848 68.1811 48.4452C68.1506 48.2057 70.5647 43.9447 70.5647 43.9447C70.5647 43.9447 70.5882 43.3692 70.6328 43.3082C70.6773 43.2471 73.4035 38.5563 73.4035 38.5563L73.4059 38.554Z" fill="url(#paint19_linear_1039_153)"/>
<path d="M67.4162 59.7856C67.3951 60.0088 67.4608 60.2789 67.7611 60.5937C68.0074 60.8544 67.9629 61.5614 67.9042 61.8245C67.8456 62.0876 67.8526 62.8463 68.0332 63.0013C68.2139 63.1563 68.5916 63.5744 68.6174 63.7436C68.6432 63.9127 68.73 63.9315 69.157 64.3496C69.584 64.7677 69.6403 64.7325 69.6403 64.7325C69.6403 64.7325 69.638 64.2768 69.2603 64.0019C68.8825 63.7295 68.9154 63.2714 69.0069 63.1023C69.0984 62.9332 69.021 62.0547 68.7887 61.6389C68.5564 61.2232 68.2843 60.9812 68.2538 60.8802C68.1623 60.5937 67.4162 59.7856 67.4162 59.7856Z" fill="#0ABDC6"/>
<path d="M75.3109 54.052L72.5613 59.2548L73.7648 60.1568L77.1949 53.9087L75.3109 54.052Z" fill="url(#paint20_linear_1039_153)"/>
<path d="M84.2801 37.4053L85.3218 38.5539L82.8772 64.2111L81.7463 63.0789L84.2801 37.4053Z" fill="url(#paint21_linear_1039_153)"/>
<path d="M95.5626 48.0835C95.5626 48.0835 95.9896 43.7404 95.8981 43.2706C95.8066 42.8008 95.9051 42.728 95.9098 42.331C95.9145 41.9341 96.3297 38.7395 96.4212 38.2369C96.5127 37.7365 96.677 37.511 96.677 37.511L95.5626 36.4399C95.5626 36.4399 94.9596 39.0848 94.7672 40.7361C94.6218 41.9951 94.8494 41.5582 94.7133 42.2606C94.5772 42.9629 94.1877 47.1768 94.1877 47.1768L94.4435 47.3436C94.8306 47.4587 95.3608 47.6842 95.5626 48.0812V48.0835Z" fill="url(#paint22_linear_1039_153)"/>
<path d="M95.0371 51.2967C95.0371 51.2967 94.9972 51.137 94.9151 51.144C94.6382 51.1722 94.2886 51.2145 93.8945 51.2615L92.3789 69.5783L93.3549 70.6259L94.5866 57.5378L95.0347 51.2967H95.0371Z" fill="url(#paint23_linear_1039_153)"/>
<path d="M34.3548 44.5906C35.4082 45.0956 35.4622 45.5912 35.5114 45.8238C35.617 46.3076 34.7982 46.6976 34.6551 46.5049C34.6551 46.5049 33.8434 45.7369 33.8879 45.6053C33.9325 45.4738 34.3853 45.0157 34.3853 45.0157C34.2774 44.7174 34.3525 44.5929 34.3525 44.5929L34.3548 44.5906Z" fill="#0ABDC6"/>
<path opacity="0.8" d="M34.7631 46.5967C34.7631 46.5967 35.847 47.1863 36.5883 47.1628C36.6751 47.696 36.0088 47.8275 36.0088 47.8275L33.4938 75.2347L32.3466 74.0461L34.7631 46.5967Z" fill="url(#paint24_linear_1039_153)"/>
<path d="M42.5381 53.6622L40.3492 56.0651L39.4013 56.0557L39.2981 57.2584L41.541 57.1597L45.4402 52.9364L44.9217 50.8176L43.8167 49.77L44.2507 51.8465L42.5381 53.6622Z" fill="url(#paint25_linear_1039_153)"/>
<path d="M52.129 42.6621L53.1073 43.7332C53.1073 43.7332 53.1073 47.1016 52.265 50.8363C52.1595 51.2991 52.434 51.3836 52.4035 51.6866C52.373 51.9897 51.2515 62.8557 51.2515 62.8557L49.9025 62.6302L49.4333 62.3648L50.2826 61.7024C50.2826 61.7024 51.1389 51.292 51.2726 50.9561C51.4064 50.6202 50.9794 50.3125 51.1014 49.7699C51.2234 49.2273 52.1313 42.6621 52.1313 42.6621H52.129Z" fill="url(#paint26_linear_1039_153)"/>
<path d="M50.8105 63.5886C51.6832 64.1876 52.1618 64.7889 51.8709 65.6792C51.8709 65.6792 50.8105 64.8406 50.8105 64.6339V63.5886Z" fill="url(#paint27_linear_1039_153)"/>
<path d="M55.9907 59.7646L60.9175 58.0311L62.7381 39.8105L63.8924 40.9639L61.9404 59.0341L55.681 61.3196L55.9907 59.7646Z" fill="url(#paint28_linear_1039_153)"/>
<path d="M20.7122 10.9939L21.7609 12.065C21.7609 12.065 17.6998 19.1258 17.613 19.3443C17.5262 19.5627 17.613 20.0654 17.613 20.0654L13.9014 26.9524L15.1237 32.1999L14.0328 31.15C14.0328 31.15 12.8527 26.1867 12.8105 25.8391C12.7682 25.4914 16.5009 18.9755 16.5009 18.9755C16.5009 18.9755 16.4563 18.2544 16.522 18.1675C16.5877 18.0806 20.7145 10.9986 20.7145 10.9986L20.7122 10.9939Z" fill="url(#paint29_linear_1039_153)"/>
<path d="M11.6186 42.4836C11.5881 42.8101 11.5436 42.8946 11.9776 43.355C12.3366 43.7332 12.6204 45.2435 12.536 45.6264C12.4515 46.0093 12.1113 46.6364 12.3764 46.8643C12.6415 47.0921 13.1905 47.6981 13.2281 47.9448C13.2656 48.1914 13.3806 48.4005 14.0046 49.0065C14.6287 49.6125 14.441 49.3095 14.441 49.3095C14.441 49.3095 14.3284 48.7411 13.7771 48.3417C13.2257 47.9424 13.4744 47.3552 13.6058 47.1086C13.7372 46.8619 13.6246 45.4596 13.2844 44.8513C12.9442 44.2429 12.7448 43.9187 12.6979 43.7708C12.5641 43.3526 11.6186 42.4812 11.6186 42.4812V42.4836Z" fill="url(#paint30_linear_1039_153)"/>
<path d="M20.7122 10.9939L30.6456 10.0403L32.1143 11.2218L21.7585 12.065L20.7122 10.9939Z" fill="#B3E2E1"/>
<path d="M33.766 15.8656C33.9302 15.6401 33.0551 14.6653 32.8557 14.2778C32.6586 13.8902 32.7877 13.4063 32.8815 13.1292C32.9753 12.852 32.8229 12.4879 32.5507 12.2577C32.2786 12.0275 32.0463 11.6963 32.1143 11.2195L21.7609 12.0627C21.7609 12.0627 17.6998 19.1236 17.613 19.342C17.5262 19.5605 17.613 20.0632 17.613 20.0632L13.9015 26.9502L15.1238 32.1977L27.7294 31.1054L21.524 42.5141L12.5032 43.4325V43.4372C12.5947 43.5617 12.6674 43.6768 12.6979 43.7708C12.7448 43.9187 12.9442 44.2452 13.2844 44.8513C13.6246 45.4573 13.7396 46.8619 13.6058 47.1086C13.4721 47.3552 13.2281 47.9424 13.7771 48.3418C14.3261 48.7411 14.4411 49.3095 14.4411 49.3095C14.4411 49.3095 14.4739 49.3635 14.4622 49.38L14.4669 49.387L24.4355 48.431L32.6352 33.6963L32.5765 26.7529C32.5765 26.7529 30.2163 26.8821 29.2966 26.9408C28.377 26.9995 27.8303 27.4012 27.469 27.5609C27.1101 27.7183 19.7574 28.3102 19.7574 28.3102L24.764 16.8592C24.764 16.8592 33.5971 16.0958 33.7636 15.8703L33.766 15.8656Z" fill="white"/>
<path d="M27.7271 31.1052L25.9464 31.2603L20.243 41.619L21.524 42.5139L27.7271 31.1052Z" fill="#0ABDC6"/>
<path d="M20.243 41.6189L11.6187 42.4833L12.5031 43.4346L21.5239 42.5138L20.243 41.6189Z" fill="#0ABDC6"/>
<path d="M27.7271 25.9471C27.3189 25.9776 26.5142 26.4192 26.3898 26.4662C26.2631 26.5132 20.2946 27.0839 20.2946 27.0839L19.7597 28.3054C19.7597 28.3054 27.1124 27.7158 27.4714 27.5561C27.8303 27.3987 28.377 26.9947 29.299 26.936C30.2187 26.8772 32.5789 26.7481 32.5789 26.7481L31.3894 25.6135C31.3894 25.6135 28.1353 25.9118 27.7271 25.9447V25.9471Z" fill="url(#paint31_linear_1039_153)"/>
<path d="M36.0018 14.2004C37.1209 14.7383 37.2077 15.4266 37.2617 15.6709C37.3743 16.1853 36.5015 16.601 36.3514 16.3943C36.3514 16.3943 35.488 15.5769 35.5349 15.436C35.5818 15.295 36.2575 14.783 36.2575 14.783L36.0018 14.2004Z" fill="#0ABDC6"/>
<path d="M36.6212 16.6243C36.6212 16.6243 37.8482 17.134 38.5896 17.1105C38.6764 17.6437 37.7801 17.6202 37.7801 17.6202L35.488 41.4335L34.3525 40.3671L36.6212 16.6243Z" fill="url(#paint32_linear_1039_153)"/>
<path d="M48.0303 21.1625L47.0684 20.3052L47.5024 22.8044L45.1985 25.3013L43.0542 27.6103L41.6747 27.7724V28.7989L44.2718 28.6697L48.7107 23.6853L48.0303 21.1625Z" fill="url(#paint33_linear_1039_153)"/>
<path d="M33.4422 12.3728L34.5073 13.4862L45.8907 12.2624L44.5722 11.2571L33.4422 12.3728Z" fill="#B3E2E1"/>
<path d="M36.0229 14.2495L36.1496 14.5408C36.0793 14.3787 36.0417 14.2941 36.0229 14.2495Z" fill="white"/>
<path d="M36.0018 14.2004L36.0111 14.2214L36.0018 14.2004Z" fill="white"/>
<path d="M53.9848 24.552L52.1689 17.7307L45.8907 12.2625L34.5073 13.4862L36.0018 14.2003C37.1209 14.7382 37.2077 15.4264 37.2617 15.6707C37.3672 16.1523 36.6094 16.5469 36.3889 16.4271L36.6212 16.6244C36.6212 16.6244 37.8482 17.1341 38.5896 17.1106C38.6764 17.6438 37.7802 17.6203 37.7802 17.6203L35.488 41.4336L40.2975 40.9686L41.0811 33.6C41.0811 33.6 45.7804 33.3816 46.0619 33.3487C46.3435 33.3158 48.2555 31.2487 48.2555 31.2487L48.225 30.934L53.9871 24.5543L53.9848 24.552ZM44.2718 28.6696L41.6747 28.7988L42.653 17.5804H44.0325L48.0327 21.1601L48.713 23.6829L44.2742 28.6696H44.2718Z" fill="white"/>
<path opacity="0.1" d="M44.8443 25.6842L48.5183 23.9014L48.7107 23.6853L48.0303 21.1625L47.0684 20.3052L47.5024 22.8044L45.1986 25.3013L44.8443 25.6842Z" fill="black"/>
<path d="M56.2698 9.32153L57.2998 10.3762L54.6088 40.1487L53.5413 39.08L56.2698 9.32153Z" fill="url(#paint34_linear_1039_153)"/>
<path d="M56.2699 9.32158C56.2699 9.32158 58.0154 9.46721 58.67 8.92931C59.3245 8.39141 59.6413 7.7478 59.6413 7.7478L60.9504 8.88468C60.9504 8.88468 60.7439 8.89877 60.6595 9.0585C60.575 9.21822 60.5445 9.85948 59.2377 10.1789C57.9309 10.4984 57.2998 10.3739 57.2998 10.3739L56.2699 9.32158Z" fill="#B3E2E1"/>
<path d="M61.0888 9.95102C61.0888 9.95102 61.1029 9.07488 60.9504 8.88696C60.9504 8.88696 60.7439 8.90106 60.6594 9.06078C60.575 9.22051 60.5445 9.86176 59.2377 10.1812C57.9309 10.5007 57.2998 10.3762 57.2998 10.3762L54.6088 40.1487C54.6088 40.1487 54.6534 40.548 55.2235 39.6695C55.7936 38.7934 57.1074 37.7434 57.5978 38.434C58.0881 39.1246 58.2078 38.5538 58.5667 37.8092C58.9257 37.0646 59.6014 36.3481 59.721 35.324C59.8407 34.2999 61.9639 10.7731 61.9639 10.7731L61.0888 9.94867V9.95102Z" fill="white"/>
<path d="M76.4019 7.6773L77.5257 8.74136L71.5595 9.10074L67.3412 13.6482V13.9724L63.6719 18.2944C63.6719 18.2944 62.1985 27.0418 62.2502 27.2908C62.3018 27.5397 67.0925 37.6119 67.0925 37.6119L65.9687 36.5126C65.9687 36.5126 61.1756 26.6425 61.1522 26.067C61.1287 25.4915 62.4003 17.4464 62.5739 17.1716C62.7475 16.8968 66.3676 12.6734 66.3676 12.6734L66.3183 12.4245L70.5108 8.02729C72.5097 7.73133 74.4828 7.56455 76.4019 7.6773Z" fill="url(#paint35_linear_1039_153)"/>
<path d="M78.4758 12.4222C77.9362 11.7363 78.1615 10.3646 78.192 10.0545C78.2225 9.74444 77.589 8.9787 77.5257 8.74146L71.5595 9.10084L67.3412 13.6483V13.9725L63.6719 18.2945L62.2501 27.2908L67.0925 37.612L76.0734 36.8228C76.0734 36.616 75.5878 35.7329 75.4986 35.5708C75.4095 35.4087 75.3062 34.2883 75.3062 34.0957C75.3062 33.903 75.3954 33.7574 75.4095 33.5366C75.4235 33.3158 74.8933 32.9024 74.8511 32.7403C74.8089 32.5783 74.6751 32.2541 74.6751 32.2541L70.1542 32.6229C70.1542 32.6229 67.1324 26.1986 67.1793 25.959C67.2262 25.7194 68.0919 20.1055 68.0919 20.1055L73.481 13.8856C73.481 13.8856 78.1333 13.3994 78.4782 13.3994C78.8231 13.3994 79.0178 13.1034 78.4782 12.4199L78.4758 12.4222Z" fill="white"/>
<path d="M69.6216 31.4882C69.6216 31.4882 73.2956 31.0889 73.4645 31.1218C73.6334 31.1547 74.6728 32.254 74.6728 32.254L70.1518 32.6228L69.6216 31.4882Z" fill="url(#paint36_linear_1039_153)"/>
<path d="M91.5976 6.03545L92.7214 7.09951L86.7553 7.4589L82.537 12.0064V12.3306L78.8676 16.6526C78.8676 16.6526 77.3943 25.3999 77.4459 25.6489C77.4975 25.8979 82.2883 35.97 82.2883 35.97L81.1645 34.8708C81.1645 34.8708 76.3714 25.0006 76.3479 24.4251C76.3221 23.8496 77.5961 15.8046 77.7697 15.5298C77.9433 15.255 81.5633 11.0316 81.5633 11.0316L81.5141 10.7826L85.7089 6.38544C87.7078 6.08948 89.6809 5.92271 91.6 6.03545H91.5976Z" fill="url(#paint37_linear_1039_153)"/>
<path d="M95.159 34.0299C94.9197 33.788 94.8118 32.9471 94.7954 32.3599C94.7813 31.7726 95.0206 31.7891 94.9596 31.5612C94.8986 31.3357 94.4036 30.974 94.3121 30.6123C94.2229 30.2505 94.0353 30.1166 94.0353 30.1166L85.2772 30.9599L82.4056 24.3078L82.5252 23.7957C82.5252 23.7957 87.0204 23.5256 87.004 23.3142C86.9899 23.1028 86.6872 22.3511 86.5089 21.9894C86.3283 21.6277 86.4479 20.2371 86.523 20.0186C86.5981 19.8002 86.0725 19.4878 86.0866 19.1449C86.1007 18.8019 85.8168 18.6023 85.8168 18.6023L83.2525 18.8465C83.2314 18.2476 88.6932 12.2437 88.6932 12.2437C88.6932 12.2437 94.0306 11.9125 94.0353 11.6448C94.0399 11.377 93.4534 10.3247 93.3713 9.65993C93.2892 8.99518 93.4745 8.81902 93.4534 8.50896C93.4323 8.1989 92.8974 7.58114 92.7167 7.09961L86.7506 7.45899L82.5323 12.0065V12.3306L78.8629 16.6527C78.8629 16.6527 77.3896 25.4 77.4412 25.649C77.4928 25.898 82.2836 35.9701 82.2836 35.9701L95.5344 34.7628C95.5344 34.7628 95.3913 34.2672 95.1544 34.0252L95.159 34.0299Z" fill="white"/>
<path d="M85.8215 18.6022L84.7822 17.6016H84.0666C83.5763 18.2287 83.2502 18.6985 83.2572 18.8465L85.8215 18.6022Z" fill="#0ABDC6"/>
<path d="M84.8057 29.8582L92.9889 29.0479L94.04 30.1166L85.2796 30.9575L84.8057 29.8582Z" fill="url(#paint38_linear_1039_153)"/>
<path d="M53.8088 72.3689C53.7431 72.174 43.134 61.4559 43.134 61.4559C43.4906 61.2609 45.0484 59.4734 45.0484 59.4734L45.0813 59.1821L50.0457 53.6598L48.5207 47.7499L43.3944 43.2964L33.4352 44.2383L34.3549 44.5906C35.4083 45.0957 35.4622 45.5913 35.5115 45.8238C35.603 46.2443 34.9977 46.5919 34.7443 46.5496L34.7631 46.5966C34.7631 46.5966 35.847 47.1862 36.5884 47.1627C36.6752 47.6959 36.0089 47.8274 36.0089 47.8274L33.4938 75.2346C33.4938 75.2346 33.5384 74.8188 34.4698 73.1182C35.4106 71.4035 36.9356 71.5586 37.2429 71.8851C37.5503 72.2092 37.813 72.1458 37.813 71.723C37.813 71.3002 38.5591 63.3092 38.5591 63.3092C38.5591 63.3092 51.763 76.7896 51.7959 76.1389C51.8287 75.4883 52.8328 74.093 53.4499 73.7689C54.0669 73.4447 53.5156 72.7283 53.5156 72.632C53.5156 72.5357 53.8722 72.5662 53.8065 72.3713L53.8088 72.3689ZM39.2981 57.2583L40.1404 47.461L41.4378 47.3365L43.8191 49.77L44.9217 50.8153L45.4402 52.934L41.541 57.1573L39.2958 57.256L39.2981 57.2583Z" fill="white"/>
<path opacity="0.1" d="M41.6818 54.5994L45.4379 52.9387L45.4402 52.9364L44.9217 50.8176L43.8167 49.77L44.2508 51.8465L42.5381 53.6622L41.6818 54.5994Z" fill="black"/>
<path d="M33.4352 44.2383L32.0251 42.9793L41.6817 41.9458L43.3944 43.2964L33.4352 44.2383Z" fill="#B3E2E1"/>
<path d="M67.1464 40.3695C67.0455 40.2685 67.1136 39.6672 67.0291 39.7024C66.9447 39.7376 66.4614 40.4047 66.1118 40.5551C65.7622 40.7054 65.0279 40.6044 64.7604 40.6561C64.493 40.7054 63.8924 40.9661 63.8924 40.9661L62.9164 50.0001L61.9404 59.034L55.681 61.3195L55.8358 60.542L55.9907 59.7645L57.5203 40.7547C57.5203 40.7547 56.7696 42.0231 55.6786 42.4413C54.5877 42.8594 54.834 42.0067 54.6065 42.0231C54.3789 42.0396 54.0176 43.1412 53.8135 43.4419C53.6117 43.7426 53.2481 43.5077 53.1026 43.7308C53.1026 43.7308 53.1026 47.0992 52.2603 50.8339C52.1548 51.2967 52.4293 51.3812 52.3988 51.6842C52.3683 51.9873 51.2468 62.8533 51.2468 62.8533L49.8978 62.6278L49.4286 62.3624L50.8081 63.5862C51.6809 64.1852 52.1595 64.7865 51.8685 65.6767L53.3325 66.4354C53.3325 66.4354 63.1393 62.9943 63.8243 62.8533C64.5094 62.7124 65.8748 61.592 66.1094 60.1544C66.3441 58.7169 67.8784 41.652 67.8784 41.3349C67.8784 41.0178 67.245 40.4658 67.1441 40.3672L67.1464 40.3695Z" fill="white"/>
<path d="M63.8924 40.9638C63.8924 40.9638 64.4953 40.7031 64.7604 40.6538C65.0279 40.6045 65.7622 40.7031 66.1118 40.5528C66.4614 40.4025 66.9447 39.7354 67.0291 39.7001L65.8772 38.5515C65.7927 38.5844 65.3094 39.2538 64.9599 39.4042C64.6103 39.5545 63.876 39.4535 63.6085 39.5052C63.341 39.5545 62.7381 39.8105 62.7381 39.8105L63.8924 40.9638Z" fill="#B3E2E1"/>
<path opacity="0.2" d="M63.8924 40.9638C63.8924 40.9638 64.4953 40.7031 64.7604 40.6538C65.0279 40.6045 65.7622 40.7031 66.1118 40.5528C66.4614 40.4025 66.9447 39.7354 67.0291 39.7001L65.8772 38.5515C65.7927 38.5844 65.3094 39.2538 64.9599 39.4042C64.6103 39.5545 63.876 39.4535 63.6085 39.5052C63.341 39.5545 62.7381 39.8105 62.7381 39.8105L63.8924 40.9638Z" fill="url(#paint39_linear_1039_153)"/>
<path d="M53.8158 43.4419C54.0176 43.1412 54.3812 42.0396 54.6088 42.0231C54.8364 42.0067 54.59 42.857 55.681 42.4412C56.7719 42.0231 57.5227 40.7547 57.5227 40.7547L56.542 39.6836C56.542 39.6836 55.7912 40.952 54.7003 41.3701C53.6094 41.7882 53.8557 40.9356 53.6281 40.952C53.4006 40.9685 53.0393 42.0701 52.8351 42.3708C52.6334 42.6714 52.2697 42.4365 52.1243 42.6597L53.1049 43.7308C53.2504 43.5076 53.6117 43.7402 53.8158 43.4419Z" fill="#B3E2E1"/>
<path opacity="0.1" d="M63.8924 40.9639L62.7381 39.8105L60.9175 58.0311L58.6042 58.8462L61.9404 59.0341L63.8924 40.9639Z" fill="black"/>
<path opacity="0.2" d="M53.9167 41.3961C53.8745 41.3608 53.8416 41.3162 53.8182 41.2716C53.7407 41.1165 53.7337 40.9451 53.6305 40.9521C53.4029 40.9686 53.0416 42.0702 52.8375 42.3709C52.7859 42.446 52.7249 42.4883 52.6592 42.5118L53.7783 43.4842C53.7924 43.4702 53.8064 43.4584 53.8182 43.4396C54.0199 43.139 54.3836 42.0373 54.6111 42.0209C54.6111 42.0209 54.1325 41.6216 53.919 41.3937L53.9167 41.3961Z" fill="url(#paint40_linear_1039_153)"/>
<path opacity="0.2" d="M56.2207 42.1523C57.0113 41.6144 57.5227 40.7547 57.5227 40.7547L56.5421 39.6836C56.5421 39.6836 55.986 40.6232 55.1344 41.1517L56.223 42.1523H56.2207Z" fill="url(#paint41_linear_1039_153)"/>
<path d="M80.9556 43.0334C82.0536 42.977 83.0672 42.8643 82.4994 42.6247C81.9293 42.3851 81.8519 40.7949 81.7486 40.5811C81.6454 40.365 81.8964 39.9657 81.6055 39.8107C81.3146 39.6556 81.1832 39.2 81.1832 39.2L74.4757 39.6063C74.4757 39.6063 71.8785 44.088 71.8175 44.2384C71.7565 44.3887 71.658 44.9665 71.658 44.9665L69.2744 49.514V54.5149L77.1948 53.9112L73.7648 60.1593L68.0872 60.6056C68.167 60.709 68.2303 60.8053 68.2538 60.8804C68.2866 60.9838 68.5564 61.2234 68.7887 61.6391C69.021 62.0549 69.0984 62.9334 69.0069 63.1025C68.9154 63.2716 68.8826 63.7273 69.2603 64.0022C69.638 64.2746 69.6403 64.7327 69.6403 64.7327L76.1086 64.0938L81.5117 54.2354L81.5844 48.9832C81.5844 48.9832 79.3462 49.0959 79.0365 49.1241C78.7268 49.1523 78.3327 49.4906 77.9667 49.6315C77.6007 49.7724 73.685 50.0308 73.685 50.0308L76.9532 43.4867C76.9532 43.4867 79.853 43.0898 80.951 43.0334H80.9556Z" fill="white"/>
<path d="M74.4734 39.6061L81.1809 39.1998L80.0172 38.0229L73.4059 38.5538L74.4734 39.6061Z" fill="#B3E2E1"/>
<path d="M77.3732 48.4381C76.8641 48.6213 74.3021 48.7998 74.3021 48.7998L73.6874 50.0283C73.6874 50.0283 77.6031 49.7699 77.9691 49.629C78.3351 49.488 78.7292 49.1498 79.0389 49.1216C79.3486 49.0934 81.5868 48.9807 81.5868 48.9807L80.4302 47.9072C77.7157 48.0294 77.8799 48.2549 77.3708 48.4381H77.3732Z" fill="url(#paint42_linear_1039_153)"/>
<path d="M67.4163 59.7857L72.5613 59.2549L73.7648 60.1569L68.0872 60.6055L67.4163 59.7857Z" fill="url(#paint43_linear_1039_153)"/>
<path d="M94.9127 51.1442C93.1437 51.3321 88.346 51.9639 88.346 51.9639C88.346 51.9639 87.7148 60.0536 87.5037 60.3754C87.2925 60.6972 86.1805 62.6538 85.9998 62.6233C85.8192 62.5928 85.4579 62.1911 85.0074 62.2569C84.557 62.3226 82.8748 64.2088 82.8748 64.2088L85.3195 38.5516C85.3195 38.5516 87.2597 38.6291 87.6703 38.312C88.0808 37.9949 88.4116 37.2785 88.5524 37.2902C88.6932 37.302 88.6158 38.1171 88.8034 38.2369C88.9911 38.3567 89.4205 39.0284 89.4205 39.0284L88.7565 47.5832L94.0048 47.2403C94.0048 47.2403 95.2318 47.4305 95.5626 48.0835C95.5626 48.0835 95.9896 43.7404 95.8981 43.2706C95.8066 42.8008 95.9051 42.728 95.9098 42.331C95.9145 41.9341 96.3298 38.7395 96.4213 38.2369C96.5128 37.7342 96.6746 37.511 96.6746 37.511C96.6746 37.511 98.1902 37.4077 98.4248 37.2902C98.6595 37.1728 99.5275 36.7523 99.5275 36.4376C99.5275 36.1228 99.5815 36.0524 99.6894 36.0876C99.7973 36.1228 99.7434 36.7923 99.9052 36.9191C100.067 37.046 100.682 37.6778 100.647 38.0583C100.611 38.4389 99.436 51.3931 99.4665 51.7243C99.497 52.0555 99.497 52.7038 99.436 53.1619C99.375 53.6199 97.7515 69.0922 97.7234 69.3342C97.6952 69.5761 97.3316 69.2144 96.792 69.4845C96.2523 69.7546 95.769 70.2972 95.4992 70.2361C95.2294 70.1751 94.9573 69.905 94.5983 69.966C94.2394 70.0271 93.3526 70.6214 93.3526 70.6214L94.5843 57.5332L95.0324 51.2921C95.0324 51.2921 94.9925 51.1324 94.9104 51.1395L94.9127 51.1442Z" fill="white"/>
<path d="M88.7589 47.5854L94.0071 47.2425C94.0071 47.2425 94.1666 47.2801 94.3825 47.3411L94.664 47.4187L93.0429 46.1033L88.8621 46.2794L88.7612 47.5854H88.7589Z" fill="url(#paint44_linear_1039_153)"/>
<path d="M87.6726 38.3141C88.0831 37.9947 88.4139 37.2806 88.5547 37.2923C88.5547 37.2923 87.4333 35.8759 87.3347 36.3269C87.269 36.6276 86.5347 37.0903 86.1523 37.2923C85.7699 37.4943 84.2801 37.4051 84.2801 37.4051L85.3218 38.5537C85.3218 38.5537 87.262 38.6312 87.6726 38.3141Z" fill="#B3E2E1"/>
<path opacity="0.2" d="M87.6726 38.3141C88.0831 37.9947 88.4139 37.2806 88.5547 37.2923C88.5547 37.2923 87.4333 35.8759 87.3347 36.3269C87.269 36.6276 86.5347 37.0903 86.1523 37.2923C85.7699 37.4943 84.2801 37.4051 84.2801 37.4051L85.3218 38.5537C85.3218 38.5537 87.262 38.6312 87.6726 38.3141Z" fill="url(#paint45_linear_1039_153)"/>
<path d="M98.4295 37.2926C98.6642 37.1775 99.5322 36.7547 99.5322 36.44C99.5322 36.1252 99.5862 36.0547 99.6941 36.09C99.6941 36.09 98.6759 34.6689 98.5234 35.0612C98.4483 35.2561 97.8735 35.848 97.7022 36.0806C97.531 36.3131 95.5649 36.4376 95.5649 36.4376L96.6793 37.5087C96.6793 37.5087 98.1949 37.4054 98.4295 37.2879V37.2926Z" fill="#B3E2E1"/>
<path opacity="0.2" d="M98.4295 37.2926C98.6642 37.1775 99.5322 36.7547 99.5322 36.44C99.5322 36.1252 99.5862 36.0547 99.6941 36.09C99.6941 36.09 98.6759 34.6689 98.5234 35.0612C98.4483 35.2561 97.8735 35.848 97.7022 36.0806C97.531 36.3131 95.5649 36.4376 95.5649 36.4376L96.6793 37.5087C96.6793 37.5087 98.1949 37.4054 98.4295 37.2879V37.2926Z" fill="url(#paint46_linear_1039_153)"/>
</g>
<defs>
<filter id="filter0_d_1039_153" x="0" y="0" width="139" height="90.4287" filterUnits="userSpaceOnUse" color-interpolation-filters="sRGB">
<feFlood flood-opacity="0" result="BackgroundImageFix"/>
<feColorMatrix in="SourceAlpha" type="matrix" values="0 0 0 0 0 0 0 0 0 0 0 0 0 0 0 0 0 0 127 0" result="hardAlpha"/>
<feOffset dy="4"/>
<feGaussianBlur stdDeviation="5"/>
<feComposite in2="hardAlpha" operator="out"/>
<feColorMatrix type="matrix" values="0 0 0 0 0 0 0 0 0 0 0 0 0 0 0 0 0 0 1 0"/>
<feBlend mode="normal" in2="BackgroundImageFix" result="effect1_dropShadow_1039_153"/>
<feBlend mode="normal" in="SourceGraphic" in2="effect1_dropShadow_1039_153" result="shape"/>
</filter>
<filter id="filter1_i_1039_153" x="113.309" y="32.792" width="14.5084" height="25.554" filterUnits="userSpaceOnUse" color-interpolation-filters="sRGB">
<feFlood flood-opacity="0" result="BackgroundImageFix"/>
<feBlend mode="normal" in="SourceGraphic" in2="BackgroundImageFix" result="shape"/>
<feColorMatrix in="SourceAlpha" type="matrix" values="0 0 0 0 0 0 0 0 0 0 0 0 0 0 0 0 0 0 127 0" result="hardAlpha"/>
<feOffset/>
<feGaussianBlur stdDeviation="2"/>
<feComposite in2="hardAlpha" operator="arithmetic" k2="-1" k3="1"/>
<feColorMatrix type="matrix" values="0 0 0 0 0.35 0 0 0 0 0 0 0 0 0 0.324573 0 0 0 1 0"/>
<feBlend mode="normal" in2="shape" result="effect1_innerShadow_1039_153"/>
</filter>
<filter id="filter2_d_1039_153" x="86.0288" y="1.73462" width="50.9711" height="65.3789" filterUnits="userSpaceOnUse" color-interpolation-filters="sRGB">
<feFlood flood-opacity="0" result="BackgroundImageFix"/>
<feColorMatrix in="SourceAlpha" type="matrix" values="0 0 0 0 0 0 0 0 0 0 0 0 0 0 0 0 0 0 127 0" result="hardAlpha"/>
<feOffset/>
<feGaussianBlur stdDeviation="4"/>
<feComposite in2="hardAlpha" operator="out"/>
<feColorMatrix type="matrix" values="0 0 0 0 0.2125 0 0 0 0 0 0 0 0 0 0.197062 0 0 0 1 0"/>
<feBlend mode="normal" in2="BackgroundImageFix" result="effect1_dropShadow_1039_153"/>
<feBlend mode="normal" in="SourceGraphic" in2="effect1_dropShadow_1039_153" result="shape"/>
</filter>
<linearGradient id="paint0_linear_1039_153" x1="106.122" y1="10.8062" x2="106.122" y2="53.6316" gradientUnits="userSpaceOnUse">
<stop stop-color="#1FB5BD"/>
<stop offset="1" stop-color="#61005A"/>
</linearGradient>
<linearGradient id="paint1_linear_1039_153" x1="112.593" y1="10.8062" x2="112.593" y2="48.9079" gradientUnits="userSpaceOnUse">
<stop stop-color="#1FB5BD"/>
<stop offset="1" stop-color="#61005A"/>
</linearGradient>
<linearGradient id="paint2_linear_1039_153" x1="101.124" y1="10.8062" x2="101.124" y2="53.6316" gradientUnits="userSpaceOnUse">
<stop stop-color="#1FB5BD"/>
<stop offset="1" stop-color="#61005A"/>
</linearGradient>
<linearGradient id="paint3_linear_1039_153" x1="116.39" y1="32.792" x2="116.39" y2="56.6593" gradientUnits="userSpaceOnUse">
<stop stop-color="#1FB5BD"/>
<stop offset="1" stop-color="#61005A"/>
</linearGradient>
<linearGradient id="paint4_linear_1039_153" x1="117.127" y1="32.792" x2="117.127" y2="58.3459" gradientUnits="userSpaceOnUse">
<stop stop-color="#1FB5BD"/>
<stop offset="1" stop-color="#61005A"/>
</linearGradient>
<linearGradient id="paint5_linear_1039_153" x1="120.563" y1="32.792" x2="120.563" y2="58.3459" gradientUnits="userSpaceOnUse">
<stop stop-color="#1FB5BD"/>
<stop offset="1" stop-color="#61005A"/>
</linearGradient>
<linearGradient id="paint6_linear_1039_153" x1="99.4155" y1="27.5277" x2="135.242" y2="58.1904" gradientUnits="userSpaceOnUse">
<stop stop-color="#2AB6BE"/>
<stop offset="0.38" stop-color="#EA00D9"/>
<stop offset="1" stop-color="#2AB6BE"/>
</linearGradient>
<linearGradient id="paint7_linear_1039_153" x1="106.519" y1="14.8557" x2="104.896" y2="56.0955" gradientUnits="userSpaceOnUse">
<stop stop-color="#0ABDC6"/>
<stop offset="0.88" stop-color="#EA00D9"/>
</linearGradient>
<linearGradient id="paint8_linear_1039_153" x1="111.474" y1="21.3669" x2="114.966" y2="40.7863" gradientUnits="userSpaceOnUse">
<stop stop-color="#0ABDC6"/>
<stop offset="0.88" stop-color="#EA00D9"/>
</linearGradient>
<linearGradient id="paint9_linear_1039_153" x1="109.069" y1="32.5267" x2="114.438" y2="25.3781" gradientUnits="userSpaceOnUse">
<stop offset="0.29" stop-color="#5F1399" stop-opacity="0.5"/>
<stop offset="1" stop-color="#5E1399"/>
</linearGradient>
<linearGradient id="paint10_linear_1039_153" x1="105.055" y1="13.1198" x2="95.1746" y2="51.035" gradientUnits="userSpaceOnUse">
<stop stop-color="#0ABDC6"/>
<stop offset="0.88" stop-color="#EA00D9"/>
</linearGradient>
<linearGradient id="paint11_linear_1039_153" x1="98.297" y1="28.9413" x2="101.245" y2="14.8059" gradientUnits="userSpaceOnUse">
<stop offset="0.31" stop-color="white" stop-opacity="0.4"/>
<stop offset="1" stop-color="#B9FFFF"/>
</linearGradient>
<linearGradient id="paint12_linear_1039_153" x1="121.154" y1="30.3494" x2="110.215" y2="50.6519" gradientUnits="userSpaceOnUse">
<stop stop-color="#0ABDC6"/>
<stop offset="0.88" stop-color="#EA00D9"/>
</linearGradient>
<linearGradient id="paint13_linear_1039_153" x1="120.309" y1="35.5992" x2="116.315" y2="49.3214" gradientUnits="userSpaceOnUse">
<stop stop-color="#0ABDC6"/>
<stop offset="0.88" stop-color="#EA00D9"/>
</linearGradient>
<linearGradient id="paint14_linear_1039_153" x1="125.49" y1="30.7534" x2="120.709" y2="49.3752" gradientUnits="userSpaceOnUse">
<stop stop-color="#0ABDC6"/>
<stop offset="0.88" stop-color="#EA00D9"/>
</linearGradient>
<linearGradient id="paint15_linear_1039_153" x1="116.391" y1="42.9795" x2="127.817" y2="42.9795" gradientUnits="userSpaceOnUse">
<stop offset="0.29" stop-color="#5E1399" stop-opacity="0.5"/>
<stop offset="1" stop-color="#5E1399"/>
</linearGradient>
<linearGradient id="paint16_linear_1039_153" x1="112.168" y1="46.5475" x2="119.918" y2="34.2855" gradientUnits="userSpaceOnUse">
<stop offset="0.31" stop-color="#FCBFF9" stop-opacity="0.4"/>
<stop offset="1" stop-color="#FFE0FE"/>
</linearGradient>
<linearGradient id="paint17_linear_1039_153" x1="122.336" y1="41.1683" x2="120.076" y2="38.5543" gradientUnits="userSpaceOnUse">
<stop offset="0.31" stop-color="#B9FFFF" stop-opacity="0.4"/>
<stop offset="1" stop-color="#A9FFFF"/>
</linearGradient>
<linearGradient id="paint18_linear_1039_153" x1="99.3891" y1="27.4483" x2="135.215" y2="58.1111" gradientUnits="userSpaceOnUse">
<stop stop-color="#2AB6BE"/>
<stop offset="0.38" stop-color="#EA00D9"/>
<stop offset="1" stop-color="#2AB6BE"/>
</linearGradient>
<linearGradient id="paint19_linear_1039_153" x1="66.2901" y1="57.6741" x2="72.6589" y2="41.4788" gradientUnits="userSpaceOnUse">
<stop offset="0.11" stop-color="#5E76CD"/>
<stop offset="0.26" stop-color="#418ECA"/>
<stop offset="0.42" stop-color="#28A2C8"/>
<stop offset="0.59" stop-color="#17B1C7"/>
<stop offset="0.78" stop-color="#0DBAC6"/>
<stop offset="1" stop-color="#0ABDC6"/>
</linearGradient>
<linearGradient id="paint20_linear_1039_153" x1="78.6917" y1="52.5228" x2="70.1547" y2="61.9177" gradientUnits="userSpaceOnUse">
<stop offset="0.11" stop-color="#5E76CD"/>
<stop offset="0.26" stop-color="#418ECA"/>
<stop offset="0.42" stop-color="#28A2C8"/>
<stop offset="0.59" stop-color="#17B1C7"/>
<stop offset="0.78" stop-color="#0DBAC6"/>
<stop offset="1" stop-color="#0ABDC6"/>
</linearGradient>
<linearGradient id="paint21_linear_1039_153" x1="78.9028" y1="64.8571" x2="85.9093" y2="43.8581" gradientUnits="userSpaceOnUse">
<stop offset="0.11" stop-color="#5E76CD"/>
<stop offset="0.26" stop-color="#418ECA"/>
<stop offset="0.42" stop-color="#28A2C8"/>
<stop offset="0.59" stop-color="#17B1C7"/>
<stop offset="0.78" stop-color="#0DBAC6"/>
<stop offset="1" stop-color="#0ABDC6"/>
</linearGradient>
<linearGradient id="paint22_linear_1039_153" x1="93.566" y1="48.2597" x2="96.5591" y2="39.2937" gradientUnits="userSpaceOnUse">
<stop offset="0.11" stop-color="#5E76CD"/>
<stop offset="0.26" stop-color="#418ECA"/>
<stop offset="0.42" stop-color="#28A2C8"/>
<stop offset="0.59" stop-color="#17B1C7"/>
<stop offset="0.78" stop-color="#0DBAC6"/>
<stop offset="1" stop-color="#0ABDC6"/>
</linearGradient>
<linearGradient id="paint23_linear_1039_153" x1="94.5772" y1="50.5239" x2="92.7829" y2="71.1917" gradientUnits="userSpaceOnUse">
<stop offset="0.11" stop-color="#5E76CD"/>
<stop offset="0.26" stop-color="#418ECA"/>
<stop offset="0.42" stop-color="#28A2C8"/>
<stop offset="0.59" stop-color="#17B1C7"/>
<stop offset="0.78" stop-color="#0DBAC6"/>
<stop offset="1" stop-color="#0ABDC6"/>
</linearGradient>
<linearGradient id="paint24_linear_1039_153" x1="29.1441" y1="75.8853" x2="36.6232" y2="53.4773" gradientUnits="userSpaceOnUse">
<stop offset="0.11" stop-color="#5E76CD"/>
<stop offset="0.26" stop-color="#418ECA"/>
<stop offset="0.42" stop-color="#28A2C8"/>
<stop offset="0.59" stop-color="#17B1C7"/>
<stop offset="0.78" stop-color="#0DBAC6"/>
<stop offset="1" stop-color="#0ABDC6"/>
</linearGradient>
<linearGradient id="paint25_linear_1039_153" x1="46.2614" y1="48.4429" x2="39.9607" y2="58.3485" gradientUnits="userSpaceOnUse">
<stop stop-color="#E801D8"/>
<stop offset="0.11" stop-color="#B42CD4"/>
<stop offset="0.22" stop-color="#8753D0"/>
<stop offset="0.33" stop-color="#6073CD"/>
<stop offset="0.45" stop-color="#418ECA"/>
<stop offset="0.57" stop-color="#28A2C8"/>
<stop offset="0.7" stop-color="#17B1C7"/>
<stop offset="0.84" stop-color="#0DBAC6"/>
<stop offset="1" stop-color="#0ABDC6"/>
</linearGradient>
<linearGradient id="paint26_linear_1039_153" x1="49.4286" y1="52.7601" x2="53.1073" y2="52.7601" gradientUnits="userSpaceOnUse">
<stop offset="0.11" stop-color="#5E76CD"/>
<stop offset="0.26" stop-color="#418ECA"/>
<stop offset="0.42" stop-color="#28A2C8"/>
<stop offset="0.59" stop-color="#17B1C7"/>
<stop offset="0.78" stop-color="#0DBAC6"/>
<stop offset="1" stop-color="#0ABDC6"/>
</linearGradient>
<linearGradient id="paint27_linear_1039_153" x1="50.8105" y1="64.6339" x2="51.9554" y2="64.6339" gradientUnits="userSpaceOnUse">
<stop offset="0.11" stop-color="#5E76CD"/>
<stop offset="0.26" stop-color="#418ECA"/>
<stop offset="0.42" stop-color="#28A2C8"/>
<stop offset="0.59" stop-color="#17B1C7"/>
<stop offset="0.78" stop-color="#0DBAC6"/>
<stop offset="1" stop-color="#0ABDC6"/>
</linearGradient>
<linearGradient id="paint28_linear_1039_153" x1="55.681" y1="50.5662" x2="63.8924" y2="50.5662" gradientUnits="userSpaceOnUse">
<stop offset="0.11" stop-color="#5E76CD"/>
<stop offset="0.26" stop-color="#418ECA"/>
<stop offset="0.42" stop-color="#28A2C8"/>
<stop offset="0.59" stop-color="#17B1C7"/>
<stop offset="0.78" stop-color="#0DBAC6"/>
<stop offset="1" stop-color="#0ABDC6"/>
</linearGradient>
<linearGradient id="paint29_linear_1039_153" x1="14.4363" y1="33.1959" x2="17.8648" y2="16.0762" gradientUnits="userSpaceOnUse">
<stop offset="0.11" stop-color="#5E76CD"/>
<stop offset="0.26" stop-color="#418ECA"/>
<stop offset="0.42" stop-color="#28A2C8"/>
<stop offset="0.59" stop-color="#17B1C7"/>
<stop offset="0.78" stop-color="#0DBAC6"/>
<stop offset="1" stop-color="#0ABDC6"/>
</linearGradient>
<linearGradient id="paint30_linear_1039_153" x1="13.2961" y1="50.3101" x2="12.8657" y2="43.3386" gradientUnits="userSpaceOnUse">
<stop offset="0.55" stop-color="#5E76CD"/>
<stop offset="0.62" stop-color="#418ECA"/>
<stop offset="0.7" stop-color="#28A2C8"/>
<stop offset="0.79" stop-color="#17B1C7"/>
<stop offset="0.89" stop-color="#0DBAC6"/>
<stop offset="1" stop-color="#0ABDC6"/>
</linearGradient>
<linearGradient id="paint31_linear_1039_153" x1="17.5637" y1="28.6507" x2="33.9762" y2="25.4518" gradientUnits="userSpaceOnUse">
<stop offset="0.52" stop-color="#1AAFC7"/>
<stop offset="0.54" stop-color="#28B3C9"/>
<stop offset="0.61" stop-color="#52C1D0"/>
<stop offset="0.67" stop-color="#75CDD6"/>
<stop offset="0.74" stop-color="#90D6DB"/>
<stop offset="0.81" stop-color="#A3DCDE"/>
<stop offset="0.88" stop-color="#AFE0E0"/>
<stop offset="0.95" stop-color="#B3E2E1"/>
</linearGradient>
<linearGradient id="paint32_linear_1039_153" x1="31.7319" y1="42.0137" x2="38.2469" y2="22.4895" gradientUnits="userSpaceOnUse">
<stop offset="0.11" stop-color="#5E76CD"/>
<stop offset="0.26" stop-color="#418ECA"/>
<stop offset="0.42" stop-color="#28A2C8"/>
<stop offset="0.59" stop-color="#17B1C7"/>
<stop offset="0.78" stop-color="#0DBAC6"/>
<stop offset="1" stop-color="#0ABDC6"/>
</linearGradient>
<linearGradient id="paint33_linear_1039_153" x1="49.682" y1="18.6515" x2="42.4319" y2="30.05" gradientUnits="userSpaceOnUse">
<stop stop-color="#E801D8"/>
<stop offset="0.11" stop-color="#B42CD4"/>
<stop offset="0.22" stop-color="#8753D0"/>
<stop offset="0.33" stop-color="#6073CD"/>
<stop offset="0.45" stop-color="#418ECA"/>
<stop offset="0.57" stop-color="#28A2C8"/>
<stop offset="0.7" stop-color="#17B1C7"/>
<stop offset="0.84" stop-color="#0DBAC6"/>
<stop offset="1" stop-color="#0ABDC6"/>
</linearGradient>
<linearGradient id="paint34_linear_1039_153" x1="52.3143" y1="39.4487" x2="56.7704" y2="18.5268" gradientUnits="userSpaceOnUse">
<stop offset="0.11" stop-color="#5E76CD"/>
<stop offset="0.26" stop-color="#418ECA"/>
<stop offset="0.42" stop-color="#28A2C8"/>
<stop offset="0.59" stop-color="#17B1C7"/>
<stop offset="0.78" stop-color="#0DBAC6"/>
<stop offset="1" stop-color="#0ABDC6"/>
</linearGradient>
<linearGradient id="paint35_linear_1039_153" x1="60.9246" y1="36.5055" x2="73.102" y2="8.17407" gradientUnits="userSpaceOnUse">
<stop offset="0.11" stop-color="#5E76CD"/>
<stop offset="0.26" stop-color="#418ECA"/>
<stop offset="0.42" stop-color="#28A2C8"/>
<stop offset="0.59" stop-color="#17B1C7"/>
<stop offset="0.78" stop-color="#0DBAC6"/>
<stop offset="1" stop-color="#0ABDC6"/>
</linearGradient>
<linearGradient id="paint36_linear_1039_153" x1="67.1042" y1="36.2988" x2="76.3293" y2="28.2201" gradientUnits="userSpaceOnUse">
<stop offset="0.2" stop-color="#1AAFC7"/>
<stop offset="0.23" stop-color="#28B3C9"/>
<stop offset="0.35" stop-color="#52C1D0"/>
<stop offset="0.47" stop-color="#75CDD6"/>
<stop offset="0.58" stop-color="#90D6DB"/>
<stop offset="0.7" stop-color="#A3DCDE"/>
<stop offset="0.82" stop-color="#AFE0E0"/>
<stop offset="0.95" stop-color="#B3E2E1"/>
</linearGradient>
<linearGradient id="paint37_linear_1039_153" x1="76.1227" y1="34.8637" x2="88.3001" y2="6.53223" gradientUnits="userSpaceOnUse">
<stop offset="0.11" stop-color="#5E76CD"/>
<stop offset="0.26" stop-color="#418ECA"/>
<stop offset="0.42" stop-color="#28A2C8"/>
<stop offset="0.59" stop-color="#17B1C7"/>
<stop offset="0.78" stop-color="#0DBAC6"/>
<stop offset="1" stop-color="#0ABDC6"/>
</linearGradient>
<linearGradient id="paint38_linear_1039_153" x1="83.6256" y1="31.8783" x2="94.0963" y2="28.468" gradientUnits="userSpaceOnUse">
<stop offset="0.2" stop-color="#1AAFC7"/>
<stop offset="0.23" stop-color="#28B3C9"/>
<stop offset="0.35" stop-color="#52C1D0"/>
<stop offset="0.47" stop-color="#75CDD6"/>
<stop offset="0.58" stop-color="#90D6DB"/>
<stop offset="0.7" stop-color="#A3DCDE"/>
<stop offset="0.82" stop-color="#AFE0E0"/>
<stop offset="0.95" stop-color="#B3E2E1"/>
</linearGradient>
<linearGradient id="paint39_linear_1039_153" x1="66.2549" y1="38.5421" x2="64.9091" y2="39.769" gradientUnits="userSpaceOnUse">
<stop offset="0.11"/>
<stop offset="0.9" stop-opacity="0.34"/>
<stop offset="1" stop-opacity="0.1"/>
</linearGradient>
<linearGradient id="paint40_linear_1039_153" x1="53.9636" y1="41.8048" x2="53.1247" y2="43.0065" gradientUnits="userSpaceOnUse">
<stop offset="0.11"/>
<stop offset="0.9" stop-opacity="0.34"/>
<stop offset="1" stop-opacity="0.1"/>
</linearGradient>
<linearGradient id="paint41_linear_1039_153" x1="56.955" y1="40.3601" x2="55.8415" y2="41.5403" gradientUnits="userSpaceOnUse">
<stop offset="0.11"/>
<stop offset="0.9" stop-opacity="0.34"/>
<stop offset="1" stop-opacity="0.1"/>
</linearGradient>
<linearGradient id="paint42_linear_1039_153" x1="73.2417" y1="50.2115" x2="83.3998" y2="47.3686" gradientUnits="userSpaceOnUse">
<stop offset="0.2" stop-color="#1AAFC7"/>
<stop offset="0.23" stop-color="#28B3C9"/>
<stop offset="0.35" stop-color="#52C1D0"/>
<stop offset="0.47" stop-color="#75CDD6"/>
<stop offset="0.58" stop-color="#90D6DB"/>
<stop offset="0.7" stop-color="#A3DCDE"/>
<stop offset="0.82" stop-color="#AFE0E0"/>
<stop offset="0.95" stop-color="#B3E2E1"/>
</linearGradient>
<linearGradient id="paint43_linear_1039_153" x1="75.3532" y1="57.3241" x2="66.9423" y2="61.9899" gradientUnits="userSpaceOnUse">
<stop offset="0.11" stop-color="#5E76CD"/>
<stop offset="0.26" stop-color="#418ECA"/>
<stop offset="0.42" stop-color="#28A2C8"/>
<stop offset="0.59" stop-color="#17B1C7"/>
<stop offset="0.78" stop-color="#0DBAC6"/>
<stop offset="1" stop-color="#0ABDC6"/>
</linearGradient>
<linearGradient id="paint44_linear_1039_153" x1="86.6919" y1="48.781" x2="94.5233" y2="45.8018" gradientUnits="userSpaceOnUse">
<stop offset="0.2" stop-color="#1AAFC7"/>
<stop offset="0.23" stop-color="#28B3C9"/>
<stop offset="0.35" stop-color="#52C1D0"/>
<stop offset="0.47" stop-color="#75CDD6"/>
<stop offset="0.58" stop-color="#90D6DB"/>
<stop offset="0.7" stop-color="#A3DCDE"/>
<stop offset="0.82" stop-color="#AFE0E0"/>
<stop offset="0.95" stop-color="#B3E2E1"/>
</linearGradient>
<linearGradient id="paint45_linear_1039_153" x1="87.377" y1="36.2189" x2="86.2563" y2="37.5471" gradientUnits="userSpaceOnUse">
<stop offset="0.11"/>
<stop offset="0.9" stop-opacity="0.34"/>
<stop offset="1" stop-opacity="0.1"/>
</linearGradient>
<linearGradient id="paint46_linear_1039_153" x1="98.7932" y1="34.8873" x2="97.4915" y2="36.5489" gradientUnits="userSpaceOnUse">
<stop offset="0.11"/>
<stop offset="0.9" stop-opacity="0.34"/>
<stop offset="1" stop-opacity="0.1"/>
</linearGradient>
</defs>
</svg>
