<?xml version="1.0" encoding="UTF-8"?>
<svg width="22px" height="22px" viewBox="0 0 22 22" version="1.1" xmlns="http://www.w3.org/2000/svg" xmlns:xlink="http://www.w3.org/1999/xlink">
    <title>Atoms / social / Insta</title>
    <g id="MAPPING" stroke="none" stroke-width="1" fill="none" fill-rule="evenodd">
        <g id="home-+-picture" transform="translate(-1089.000000, -3394.000000)" fill="#FFFFFF">
            <g id="Group-7" transform="translate(0.000000, 3103.000000)">
                <g id="Navigation-/-Footer-/-Light-Copy" transform="translate(238.000000, 54.000000)">
                    <g id="Instagram" transform="translate(851.000000, 237.000000)">
                        <path d="M11.00095,0.866666667 C8.2488769,0.866666667 7.90349552,0.878700125 6.82259537,0.927889527 C5.74380636,0.977290041 5.00744313,1.14808071 4.36312531,1.39867221 C3.69664059,1.65749713 3.13127915,2.00372296 2.56802883,2.56718438 C2.0043563,3.13043469 1.65813047,3.69579614 1.3984611,4.36206974 C1.14723626,5.00659868 0.976234475,5.74317302 0.927678413,6.82153981 C0.879333465,7.90243996 0.866666667,8.24803244 0.866666667,11.0001056 C0.866666667,13.7521787 0.878911239,14.0965045 0.927889527,15.1774046 C0.977501155,16.2561936 1.14829182,16.9925569 1.39867221,17.6368747 C1.65770824,18.3033594 2.00393407,18.8687209 2.56739549,19.4319712 C3.13043469,19.9956437 3.69579614,20.342714 4.36185863,20.6015389 C5.00659868,20.8521304 5.74317302,21.0229211 6.82175092,21.0723216 C7.90265107,21.121511 8.24782133,21.1335444 10.9996833,21.1335444 C13.7519676,21.1335444 14.0962934,21.121511 15.1771935,21.0723216 C16.2559825,21.0229211 16.9931902,20.8521304 17.6379303,20.6015389 C18.3042039,20.342714 18.8687209,19.9956437 19.4317601,19.4319712 C19.9954326,18.8687209 20.3416584,18.3033594 20.6013278,17.6370858 C20.8504415,16.9925569 21.0214433,16.2559825 21.0721105,15.1776157 C21.1206665,14.0967156 21.1333333,13.7521787 21.1333333,11.0001056 C21.1333333,8.24803244 21.1206665,7.90265107 21.0721105,6.82175092 C21.0214433,5.74296191 20.8504415,5.00659868 20.6013278,4.36228086 C20.3416584,3.69579614 19.9954326,3.13043469 19.4317601,2.56718438 C18.8680875,2.00351184 18.304415,1.65728601 17.6372969,1.39867221 C16.9912902,1.14808071 16.2545047,0.977290041 15.1757157,0.927889527 C14.0948156,0.878700125 13.7507009,0.866666667 10.9977833,0.866666667 L11.00095,0.866666667 Z M10.0918961,2.6927968 C10.3616989,2.69237457 10.6627465,2.6927968 11.00095,2.6927968 C13.7065782,2.6927968 14.0272593,2.70250801 15.0957038,2.75106407 C16.0837141,2.79624232 16.6199419,2.96133293 16.9771456,3.10003438 C17.4500394,3.28370296 17.7871874,3.5032608 18.1416466,3.85793116 C18.496317,4.21260152 18.7158748,4.55038282 18.8999656,5.02327663 C19.0386671,5.38005813 19.2039688,5.91628593 19.2489359,6.90429623 C19.297492,7.97252957 19.3080477,8.29342181 19.3080477,10.9977833 C19.3080477,13.7021448 19.297492,14.023037 19.2489359,15.0912704 C19.2037577,16.0792807 19.0386671,16.6155085 18.8999656,16.97229 C18.716297,17.4451838 18.496317,17.7819095 18.1416466,18.1363688 C17.7869763,18.4910391 17.4502505,18.710597 16.9771456,18.8942656 C16.6203641,19.0336004 16.0837141,19.1982687 15.0957038,19.243447 C14.0274704,19.292003 13.7065782,19.3025587 11.00095,19.3025587 C8.29511071,19.3025587 7.97442959,19.292003 6.90619625,19.243447 C5.91818595,19.1978465 5.38195815,19.0327559 5.02454331,18.8940545 C4.5516495,18.7103859 4.2138682,18.490828 3.85919784,18.1361577 C3.50452748,17.7814873 3.28496964,17.4445505 3.10087883,16.9714455 C2.96217738,16.614664 2.79687566,16.0784362 2.75190853,15.0904259 C2.70335247,14.0221926 2.69364125,13.7013004 2.69364125,10.99525 C2.69364125,8.28919954 2.70335247,7.96999622 2.75190853,6.90176287 C2.79708678,5.91375257 2.96217738,5.37752477 3.10087883,5.02032105 C3.28454741,4.54742723 3.50452748,4.20964593 3.85919784,3.85497557 C4.2138682,3.50030521 4.5516495,3.28074737 5.02454331,3.09665656 C5.38174703,2.95732178 5.91818595,2.7926534 6.90619625,2.74726403 C7.84100598,2.70504137 8.20327642,2.69237457 10.0918961,2.69026344 L10.0918961,2.6927968 Z M16.4100952,4.37536988 C15.7387549,4.37536988 15.1940826,4.91940888 15.1940826,5.59096032 C15.1940826,6.26230065 15.7387549,6.80697299 16.4100952,6.80697299 C17.0814356,6.80697299 17.6261079,6.26230065 17.6261079,5.59096032 C17.6261079,4.91962 17.0814356,4.37494766 16.4100952,4.37494766 L16.4100952,4.37536988 Z M11.00095,5.79616246 C8.12706452,5.79616246 5.79700691,8.12622006 5.79700691,11.0001056 C5.79700691,13.873991 8.12706452,16.2029931 11.00095,16.2029931 C13.8748355,16.2029931 16.2040487,13.873991 16.2040487,11.0001056 C16.2040487,8.12622006 13.8746244,5.79616246 11.0007389,5.79616246 L11.00095,5.79616246 Z M11.00095,7.62229259 C12.8663472,7.62229259 14.378763,9.13449723 14.378763,11.0001056 C14.378763,12.8655028 12.8663472,14.3779185 11.00095,14.3779185 C9.13534169,14.3779185 7.62313705,12.8655028 7.62313705,11.0001056 C7.62313705,9.13449723 9.13534169,7.62229259 11.00095,7.62229259 L11.00095,7.62229259 Z" id="Shape"></path>
                    </g>
                </g>
            </g>
        </g>
    </g>
</svg>