<svg width="55" height="936" viewBox="0 0 55 936" fill="none" xmlns="http://www.w3.org/2000/svg">
<line x1="27" y1="0.0664061" x2="27" y2="903.591" stroke="url(#paint0_linear_566_448)" stroke-width="6"/>
<path d="M53 138.079L27.5 122.326L2 138.079V167.336L27.5 181.964L53 167.336V138.079Z" fill="#140E1E" stroke="#721889" stroke-width="3"/>
<path d="M30.64 139.681L20.56 144.481V149.401L25.04 147.481V166.241H30.64V139.681Z" fill="white"/>
<path d="M53 388.561L27.5 372.808L2 388.561V417.818L27.5 432.446L53 417.818V388.561Z" fill="#140E1E" stroke="#504E9D" stroke-width="3"/>
<path d="M35.08 416.723V411.443H27L33.04 404.603C34.64 402.803 35.8 400.523 35.8 397.963C35.8 393.283 31.88 390.003 27.24 390.003C22.24 390.003 18.88 393.123 18.08 398.123L23.2 399.003C23.52 396.923 24.88 395.363 26.92 395.363C29 395.363 30.2 396.563 30.2 397.963C30.2 398.963 29.6 400.003 28.8 400.923L18.04 413.683V416.723H35.08Z" fill="white"/>
<path d="M53 639.043L27.5 623.29L2 639.043V668.3L27.5 682.928L53 668.3V639.043Z" fill="#140E1E" stroke="#2F82B1" stroke-width="3"/>
<path d="M26.32 655.845C30.28 655.725 29.88 658.805 29.88 659.325C29.68 660.725 28.2 662.245 26.12 662.125C24.64 662.005 22.76 660.885 22.24 659.605L17.32 662.045C18.68 665.085 22.04 667.325 25.68 667.525C30.92 667.845 35.56 664.605 36 660.085C36.2 657.285 34.4 654.045 31.52 652.965C33.44 651.885 34.88 650.045 34.88 647.845C35 644.125 31.72 640.685 27.12 640.485C23.6 640.285 20.52 641.845 18.96 644.365L23.48 647.125C23.96 646.325 24.84 645.685 26.24 645.685C28.2 645.685 28.88 647.405 28.88 648.205C28.88 648.365 29.04 651.045 26.32 651.045H23.56V655.845H26.32Z" fill="white"/>
<path d="M53 889.525L27.5 873.771L2 889.525V918.782L27.5 933.41L53 918.782V889.525Z" fill="#140E1E" stroke="#0FB7C4" stroke-width="3"/>
<path d="M23.4 907.087L28.28 898.927V907.087H23.4ZM37.24 911.807V907.087H33.92V891.487H28L15.76 911.807H28.28V917.687H33.92V911.807H37.24Z" fill="white"/>
<defs>
<linearGradient id="paint0_linear_566_448" x1="24" y1="0.0664062" x2="24" y2="903.591" gradientUnits="userSpaceOnUse">
<stop stop-color="#800080"/>
<stop offset="1" stop-color="#0A51C6"/>
</linearGradient>
</defs>
</svg>
