<?xml version="1.0" encoding="UTF-8"?>
<svg width="19px" height="16px" viewBox="0 0 19 16" version="1.1" xmlns="http://www.w3.org/2000/svg" xmlns:xlink="http://www.w3.org/1999/xlink">
    <title>Atoms / social / TW</title>
    <g id="MAPPING" stroke="none" stroke-width="1" fill="none" fill-rule="evenodd">
        <g id="home-+-picture" transform="translate(-1165.000000, -3397.000000)" fill="#FFFFFF">
            <g id="Group-7" transform="translate(0.000000, 3103.000000)">
                <g id="Navigation-/-Footer-/-Light-Copy" transform="translate(238.000000, 54.000000)">
                    <g id="Twitter" transform="translate(927.000000, 240.000000)">
                        <path d="M9.43095208,4.443438 L9.4708224,5.10088086 L8.80631704,5.02037765 C6.38751752,4.71178202 4.27439046,3.66524032 2.48022598,1.90758695 L1.6030789,1.03546886 L1.37714708,1.67949452 C0.898703218,3.11513506 1.20437568,4.63127881 2.20113373,5.65098611 C2.73273802,6.21450857 2.61312705,6.29501178 1.69610965,5.95958175 C1.37714708,5.85224413 1.09805483,5.77174093 1.07147461,5.81199253 C0.978443861,5.90591294 1.29740644,7.12687826 1.54991847,7.60989751 C1.89546126,8.28075757 2.59983695,8.93820044 3.37066317,9.32729928 L4.02187842,9.63589491 L3.2510522,9.64931211 C2.5068062,9.64931211 2.48022598,9.66272931 2.55996662,9.94449054 C2.82576877,10.8166086 3.87568724,11.7423955 5.04521668,12.1449116 L5.86920333,12.4266728 L5.15153754,12.8560232 C4.08832896,13.4732145 2.83905888,13.8220617 1.5897888,13.8488961 C0.991733969,13.8623133 0.5,13.9159821 0.5,13.9562337 C0.5,14.0904057 2.12139309,14.841769 3.0649907,15.1369474 C5.89578355,16.0090655 9.25818068,15.6333839 11.7833011,14.1440746 C13.5774655,13.0841156 15.37163,10.977615 16.2089068,8.93820044 C16.6607704,7.85140713 17.1126341,5.86566134 17.1126341,4.91304004 C17.1126341,4.29584878 17.1525044,4.21534557 17.8967504,3.4773995 C18.3353239,3.04804906 18.7473173,2.57844701 18.8270579,2.444275 C18.959959,2.18934817 18.9466689,2.18934817 18.2688734,2.4174406 C17.1392143,2.81995664 16.979733,2.76628783 17.5379175,2.16251377 C17.9499108,1.73316333 18.4416448,0.954965652 18.4416448,0.72687323 C18.4416448,0.686621626 18.2422932,0.753707632 18.0163614,0.874462444 C17.7771394,1.00863446 17.2455351,1.20989248 16.8468319,1.33064729 L16.1291661,1.55873971 L15.4779509,1.11597207 C15.119118,0.874462444 14.6140939,0.606118418 14.3482918,0.52561521 C13.6704963,0.337774391 12.6338679,0.364608794 12.022523,0.579284015 C10.3612596,1.18305807 9.31134111,2.73945343 9.43095208,4.443438 Z" id="Shape"></path>
                    </g>
                </g>
            </g>
        </g>
    </g>
</svg>